<?xml version="1.0" encoding="utf-8"?>
<!-- Generator: Adobe Illustrator 26.3.1, SVG Export Plug-In . SVG Version: 6.00 Build 0)  -->
<svg version="1.1" id="QINGHAI_CHINA" xmlns="http://www.w3.org/2000/svg" xmlns:xlink="http://www.w3.org/1999/xlink" x="0px"
	 y="0px" viewBox="0 0 156.9 120" style="enable-background:new 0 0 156.9 120;" xml:space="preserve">
<style type="text/css">
	.st0{fill:#743410;}
	.st1{fill:#FFFFFF;}
</style>
<path class="st0" d="M123.9,50.1c6.2-2,10.7-7.9,10.7-14.7c0.2-7.8-5.5-14.4-13.2-15.4c-5.1-9.5-16.8-13.7-26.9-9.4
	C90.9,6,85.7,2.9,79.8,1.7c-6.6-1.3-13.3,0.1-18.9,3.9c-1.3,0.9-2.6,2-3.9,3.3c-8.4-0.8-16.4,3.5-20.4,11c-3.6,0.5-6.9,2.3-9.4,5.1
	c-2.8,3.1-4.1,7.1-3.9,11.2c0.4,6.9,5.3,12.5,11.8,14.1v20.1V71h-8.4l52.3,13l52.2-13h-7.4V50.1z M27.8,36.1c-0.2-3,0.8-5.8,2.8-8.1
	c2-2.2,4.7-3.6,7.6-3.7c0.8,0,1.5-0.5,1.9-1.3c2.8-6,8.6-9.7,15-9.7c0.8,0,1.6,0.1,2.4,0.2c0.7,0.1,1.4-0.2,1.9-0.7
	c1.4-1.5,2.6-2.6,3.9-3.5C68,6.2,73.6,5,79,6.1c5.3,1,9.9,4.1,13,8.5c0.6,0.9,1.8,1.2,2.8,0.7c0.2-0.1,0.3-0.1,0.4-0.2
	c0.2-0.1,0.4-0.2,0.6-0.3c8.4-3.9,18.3-0.2,22.2,8.1c0.3,0.7,1.1,1.2,1.9,1.3c5.9,0.3,10.5,5.2,10.3,11.1c0,6.1-5,11.1-11.1,11.1
	c-1.2,0-4.2,0-7.3,0.1c-3.6,0.1-7.2,0.1-9,0.1c-2.4,0-7.6,0.1-13.1,0.1C83.9,46.9,77.9,47,75,47c-1.9,0-6.3-0.1-10.5-0.2
	c-4-0.1-7.7-0.1-9.3-0.1c-1.7,0-5.3-0.1-8.8-0.1c-3.2,0-6.2-0.1-7.5-0.1C33,46.5,28.1,41.9,27.8,36.1z"/>
<g>
	<path class="st0" d="M8.3,102.2c-0.8,0.8-1.9,1.2-3,1.1c-1.2,0.1-2.3-0.4-3.1-1.2c-0.4-0.4-0.7-0.9-0.7-1.4h2.7
		c0.2,0.5,0.6,0.8,1.1,0.7c0.8,0.1,1.5-0.6,1.6-1.4c0-0.1,0-0.2,0-0.3v-0.6c-0.6,0.6-1.3,0.9-2.1,0.9c-1.8,0-3.3-1.4-3.3-3.2
		c0-0.1,0-0.2,0-0.3c-0.1-1.9,1.4-3.6,3.3-3.7c0.1,0,0.1,0,0.2,0c0.8,0,1.5,0.3,2,0.9V93h2.4v6.3C9.3,100.4,9,101.4,8.3,102.2z
		 M3.8,96.4c0,0.9,0.7,1.5,1.5,1.6s1.5-0.7,1.6-1.5c0-0.9-0.7-1.5-1.5-1.6l0,0C4.5,94.9,3.8,95.6,3.8,96.4z"/>
	<path class="st0" d="M14.4,98.4c0.5,0,1-0.2,1.2-0.7h2.3c-0.1,0.4-0.3,0.9-0.6,1.2c-0.8,0.8-1.8,1.2-2.9,1.1
		c-2.4,0-3.9-1.4-3.9-3.6c-0.1-1.9,1.3-3.5,3.2-3.7c0.2,0,0.4,0,0.5,0c1.9-0.1,3.6,1.3,3.7,3.2c0,0.2,0,0.4,0,0.6v0.2h-5.1
		C12.9,97.9,13.4,98.4,14.4,98.4z M14.3,94.4c-0.7-0.1-1.3,0.4-1.4,1.1h2.8C15.6,94.8,15,94.4,14.3,94.4z"/>
	<path class="st0" d="M21.6,93.9c0.5-0.7,1.3-1.1,2.2-1c0.7,0,1.4,0.2,2,0.7c0.5,0.5,0.7,1.2,0.6,1.9v4.3H24v-3.4
		c0-0.7,0-0.8-0.1-1.1c-0.2-0.3-0.6-0.6-1-0.5c-0.4,0-0.8,0.2-1,0.5s-0.3,0.6-0.3,0.9v3.7h-2.4V93h2.4V93.9z"/>
	<path class="st0" d="M31.4,98.4c0.5,0,1-0.2,1.2-0.7h2.3c-0.1,0.4-0.3,0.9-0.6,1.2c-0.8,0.8-1.8,1.2-2.9,1.1
		c-2.4,0-3.9-1.4-3.9-3.6c-0.1-1.9,1.3-3.5,3.2-3.7c0.2,0,0.4,0,0.5,0c1.9-0.1,3.6,1.3,3.7,3.2c0,0.2,0,0.4,0,0.6v0.2h-5.1
		C29.9,97.9,30.4,98.4,31.4,98.4z M31.3,94.4c-0.7-0.1-1.3,0.4-1.4,1.1h2.8C32.6,94.8,32,94.4,31.3,94.4z"/>
	<path class="st0" d="M38.6,94.2c0.4-0.8,1.3-1.3,2.2-1.2c0.2,0,0.2,0,0.5,0v2.3c-0.3-0.2-0.7-0.3-1-0.2c-1.1,0-1.7,0.7-1.7,1.9v2.9
		h-2.4V93h2.4V94.2z"/>
	<path class="st0" d="M49.9,99.8h-2.4v-0.7c-0.5,0.7-1.3,1-2.1,1c-1.9,0-3.5-1.6-3.4-3.6v-0.1c-0.1-1.9,1.4-3.5,3.3-3.6h0.1
		c0.8,0,1.6,0.3,2.1,0.9V93h2.4L49.9,99.8z M44.5,96.4c0,0.9,0.7,1.6,1.5,1.6c0.9,0,1.6-0.7,1.6-1.5c0-0.9-0.7-1.6-1.5-1.6l0,0
		C45.2,94.9,44.5,95.6,44.5,96.4z"/>
	<path class="st0" d="M52.5,99.4c-0.4-0.5-0.7-1.2-0.6-1.9V95h-0.8v-2h0.8v-2h2.4v2h1.6v2h-1.6v2.7c0,0.4,0.2,0.6,0.6,0.6
		c0.3,0,0.6-0.1,0.9-0.3v1.9c-0.5,0.2-1,0.3-1.5,0.3C53.6,100.2,53,99.9,52.5,99.4z"/>
	<path class="st0" d="M60.7,98.4c0.5,0,1-0.2,1.2-0.7h2.3c-0.1,0.4-0.3,0.9-0.6,1.2c-0.8,0.8-1.8,1.2-2.9,1.1
		c-2.4,0-3.9-1.4-3.9-3.6c0-2.1,1.8-3.7,3.8-3.7c2.1,0,3.7,1.8,3.7,3.8l0,0v0.2h-5.1C59.2,97.9,59.7,98.4,60.7,98.4z M60.6,94.4
		c-0.7-0.1-1.3,0.4-1.4,1.1H62C61.9,94.8,61.3,94.4,60.6,94.4z"/>
	<path class="st0" d="M73.1,99.8h-2.4v-0.7c-0.5,0.7-1.3,1-2.1,1c-1.9,0-3.5-1.6-3.4-3.6v-0.1c-0.1-1.9,1.4-3.5,3.3-3.6h0.1
		c0.8,0,1.6,0.3,2.1,0.9v-4.9h2.4V99.8z M67.7,96.4c0,0.9,0.7,1.6,1.5,1.6s1.6-0.7,1.6-1.5c0-0.9-0.7-1.6-1.5-1.6l0,0
		C68.4,94.9,67.7,95.6,67.7,96.4z"/>
	<path class="st0" d="M86,96.4c0,2.2-1.7,3.7-4.1,3.7c-2,0.2-3.9-1.3-4-3.4c0-0.1,0-0.2,0-0.3c0-1,0.5-2,1.2-2.6
		c0.8-0.6,1.8-1,2.9-0.9C84.3,92.8,86,94.3,86,96.4z M80.4,96.4c0,0.9,0.7,1.6,1.5,1.6s1.6-0.7,1.6-1.5s-0.7-1.6-1.5-1.6l0,0
		C81.1,94.9,80.4,95.6,80.4,96.4z"/>
	<path class="st0" d="M89.6,93.9c0.5-0.7,1.3-1.1,2.2-1c0.7,0,1.4,0.2,2,0.7c0.5,0.5,0.7,1.2,0.6,1.9v4.3H92v-3.4
		c0-0.7,0-0.8-0.1-1.1c-0.2-0.3-0.6-0.6-1-0.5c-0.4,0-0.8,0.2-1,0.5s-0.3,0.6-0.3,0.9v3.7h-2.4V93h2.4V93.9z"/>
	<path class="st0" d="M107.1,99.8h-2.4v-0.7c-0.5,0.7-1.3,1-2.1,1c-1.9,0-3.5-1.6-3.4-3.6v-0.1c-0.1-1.9,1.4-3.5,3.3-3.6h0.1
		c0.8,0,1.6,0.3,2.1,0.9V93h2.4V99.8z M101.6,96.4c0,0.9,0.7,1.6,1.5,1.6s1.6-0.7,1.6-1.5s-0.7-1.6-1.5-1.6l0,0
		C102.3,94.9,101.7,95.6,101.6,96.4z"/>
	<path class="st0" d="M113.8,93h2.7l-3.5,6.8h-1.6l-3.5-6.8h2.7l1.6,3.5L113.8,93z"/>
	<path class="st0" d="M120.4,98.4c0.5,0,1-0.2,1.2-0.7h2.3c-0.1,0.4-0.3,0.9-0.6,1.2c-0.8,0.8-1.8,1.2-2.9,1.1
		c-2.4,0-3.9-1.4-3.9-3.6c0-2.1,1.8-3.7,3.8-3.7c2.1,0,3.7,1.8,3.7,3.8l0,0v0.2h-5C119,97.9,119.5,98.4,120.4,98.4z M120.4,94.4
		c-0.7-0.1-1.3,0.4-1.4,1.1h2.8C121.6,94.8,121,94.4,120.4,94.4z"/>
	<path class="st0" d="M127.6,94.2c0.4-0.8,1.3-1.3,2.2-1.2c0.2,0,0.2,0,0.5,0v2.3c-0.3-0.2-0.7-0.3-1-0.2c-1.1,0-1.7,0.7-1.7,1.9
		v2.9h-2.4V93h2.4C127.6,93,127.6,94.2,127.6,94.2z"/>
	<path class="st0" d="M138.9,99.8h-2.4v-0.7c-0.5,0.7-1.3,1-2.1,1c-1.9,0-3.5-1.6-3.4-3.6v-0.1c-0.1-1.9,1.4-3.5,3.3-3.6h0.1
		c0.8,0,1.6,0.3,2.1,0.9V93h2.4L138.9,99.8L138.9,99.8z M133.5,96.4c0,0.9,0.7,1.6,1.5,1.6s1.6-0.7,1.6-1.5c0-0.9-0.7-1.6-1.5-1.6
		l0,0C134.2,94.9,133.5,95.6,133.5,96.4z"/>
	<path class="st0" d="M147.2,102.2c-0.8,0.8-1.9,1.2-3,1.1c-1.2,0.1-2.3-0.4-3.1-1.2c-0.4-0.4-0.7-0.9-0.7-1.4h2.7
		c0.2,0.5,0.6,0.8,1.1,0.7c0.8,0.1,1.5-0.6,1.6-1.4c0-0.1,0-0.2,0-0.3v-0.6c-0.6,0.6-1.3,0.9-2.1,0.9c-1.8,0-3.3-1.4-3.3-3.2
		c0-0.1,0-0.2,0-0.3c-0.1-1.9,1.4-3.6,3.3-3.7c0.1,0,0.1,0,0.2,0c0.8,0,1.5,0.3,2,0.9V93h2.4v6.3
		C148.2,100.4,147.9,101.4,147.2,102.2z M142.7,96.4c0,0.9,0.7,1.5,1.5,1.6s1.5-0.7,1.6-1.5c0-0.9-0.7-1.5-1.5-1.6l0,0
		C143.4,94.9,142.7,95.6,142.7,96.4z"/>
	<path class="st0" d="M153.2,98.4c0.5,0,1-0.2,1.2-0.7h2.3c-0.1,0.4-0.3,0.9-0.6,1.2c-0.8,0.8-1.8,1.2-2.9,1.1
		c-2.4,0-3.9-1.4-3.9-3.6c0-2.1,1.8-3.7,3.8-3.7c2.1,0,3.7,1.8,3.7,3.8l0,0v0.2h-5.1C151.8,97.9,152.3,98.4,153.2,98.4z M153.2,94.4
		c-0.7-0.1-1.3,0.4-1.4,1.1h2.8C154.5,94.8,153.9,94.3,153.2,94.4L153.2,94.4z"/>
	<path class="st0" d="M49.3,114.4c0.5,0,1-0.2,1.2-0.7h2.3c-0.1,0.4-0.3,0.9-0.6,1.2c-0.8,0.8-1.8,1.2-2.9,1.1
		c-2.4,0-3.9-1.4-3.9-3.6c-0.1-1.9,1.3-3.5,3.2-3.7c0.2,0,0.4,0,0.5,0c1.9-0.1,3.6,1.3,3.7,3.2c0,0.2,0,0.4,0,0.6v0.2h-5.1
		C47.8,113.9,48.3,114.4,49.3,114.4z M49.2,110.3c-0.7-0.1-1.3,0.4-1.4,1.1h2.8C50.5,110.8,49.9,110.3,49.2,110.3z"/>
	<path class="st0" d="M61.7,115.8h-2.4V115c-0.5,0.7-1.3,1-2.1,1c-1.9,0-3.5-1.6-3.4-3.6v-0.1c-0.1-1.9,1.4-3.5,3.3-3.6h0.1
		c0.8,0,1.6,0.3,2.1,0.9V109h2.4L61.7,115.8z M56.3,112.4c0,0.9,0.7,1.6,1.5,1.6c0.9,0,1.6-0.7,1.6-1.5c0-0.9-0.7-1.6-1.5-1.6l0,0
		C57,110.8,56.3,111.5,56.3,112.4z"/>
	<path class="st0" d="M67.1,110.8c-0.9,0-1.7,0.7-1.7,1.7s0.7,1.7,1.7,1.7c0.5,0,0.9-0.2,1.2-0.5v2c-0.5,0.2-1.1,0.4-1.7,0.4
		c-2,0.1-3.7-1.5-3.7-3.5c-0.1-2,1.5-3.7,3.5-3.7c0.1,0,0.2,0,0.3,0c0.6,0,1.1,0.1,1.6,0.4v2C68,110.9,67.5,110.8,67.1,110.8z"/>
	<path class="st0" d="M72.1,109.9c0.5-0.7,1.3-1.1,2.2-1c0.7,0,1.4,0.2,2,0.7c0.5,0.5,0.7,1.2,0.6,1.9v4.3h-2.4v-3.4
		c0-0.7,0-0.8-0.1-1.1c-0.2-0.3-0.6-0.6-1-0.5c-0.4,0-0.8,0.2-1,0.5s-0.3,0.6-0.3,0.9v3.7h-2.4v-11h2.4L72.1,109.9z"/>
	<path class="st0" d="M83.9,109l1.8,3.5l1.8-3.5h2.8l-5.5,10.2H82l2.3-4.3L81,109H83.9z"/>
	<path class="st0" d="M94.1,114.4c0.5,0,1-0.2,1.2-0.7h2.3c-0.1,0.4-0.3,0.9-0.6,1.2c-0.8,0.8-1.8,1.2-2.9,1.1
		c-2.4,0-3.9-1.4-3.9-3.6c0-2.1,1.8-3.7,3.8-3.7c2.1,0,3.7,1.8,3.7,3.8l0,0v0.2h-5.1C92.6,113.9,93.1,114.4,94.1,114.4z M94,110.3
		c-0.7-0.1-1.3,0.4-1.4,1.1h2.8C95.3,110.8,94.7,110.3,94,110.3z"/>
	<path class="st0" d="M106.6,115.8h-2.4V115c-0.5,0.7-1.3,1-2.1,1c-1.9,0-3.5-1.6-3.4-3.6v-0.1c-0.1-1.9,1.4-3.5,3.3-3.6h0.1
		c0.8,0,1.6,0.3,2.1,0.9V109h2.4V115.8z M101.1,112.4c0,0.9,0.7,1.6,1.5,1.6c0.9,0,1.6-0.7,1.6-1.5c0-0.9-0.7-1.6-1.5-1.6l0,0
		C101.8,110.8,101.1,111.5,101.1,112.4z"/>
	<path class="st0" d="M110.4,110.1c0.4-0.8,1.3-1.3,2.2-1.2c0.2,0,0.2,0,0.5,0v2.3c-0.3-0.2-0.7-0.3-1-0.2c-1.1,0-1.7,0.7-1.7,1.9
		v2.9H108V109h2.4V110.1z"/>
</g>
<g>
	<path class="st1" d="M51.2,53.1h8.2l-5.7,10h-2.9l4.6-7.8h-4.2C51.2,55.3,51.2,53.1,51.2,53.1z"/>
	<path class="st1" d="M62.6,56.5c1.6-0.8,3.5-0.1,4.3,1.5c0.2,0.5,0.4,1.1,0.3,1.7c0,2.3-1.7,3.8-4.3,3.8c-1.2,0.1-2.3-0.3-3.2-1.1
		c-0.7-0.7-1-1.6-1-2.5c0.1-1.4,0.6-2.7,1.5-3.8l2.2-3h3L62.6,56.5z M61.2,59.8c0,0.9,0.7,1.7,1.6,1.7s1.7-0.7,1.7-1.6
		c0-0.9-0.7-1.7-1.6-1.7l0,0C62,58.1,61.2,58.9,61.2,59.8L61.2,59.8L61.2,59.8z"/>
	<path class="st1" d="M68.1,53.1h8.2l-5.7,10h-2.9l4.6-7.8h-4.2V53.1z"/>
	<path class="st1" d="M75.7,65h-1.5l1.7-4.4h2.2L75.7,65z"/>
	<path class="st1" d="M86.5,54.3c0.8,1.1,1.2,2.5,1.1,3.8c0.1,1.4-0.3,2.7-1.1,3.8c-1.3,1.7-3.7,2.1-5.5,0.8
		c-0.3-0.2-0.5-0.5-0.8-0.8c-0.8-1.1-1.2-2.5-1.1-3.9c-0.1-1.3,0.3-2.7,1.1-3.8c0.7-1,1.9-1.5,3.1-1.5
		C84.6,52.7,85.8,53.3,86.5,54.3z M81.7,58.1c0,1.8,0.7,3.1,1.7,3.1s1.7-1.2,1.7-3.1S84.4,55,83.4,55S81.7,56.3,81.7,58.1z"/>
	<path class="st1" d="M96.4,54.3c0.8,1.1,1.2,2.5,1.1,3.8c0.1,1.4-0.3,2.7-1.1,3.8c-1.3,1.7-3.7,2.1-5.5,0.8
		c-0.3-0.2-0.5-0.5-0.8-0.8c-0.8-1.1-1.2-2.5-1.1-3.9c-0.1-1.3,0.3-2.7,1.1-3.8c0.7-1,1.9-1.5,3.1-1.5
		C94.5,52.7,95.6,53.3,96.4,54.3z M91.6,58.1c0,1.8,0.7,3.1,1.7,3.1S95,60,95,58.1S94.3,55,93.3,55S91.6,56.3,91.6,58.1z"/>
	<path class="st1" d="M106.2,54.3c0.8,1.1,1.2,2.5,1.1,3.8c0.1,1.4-0.3,2.7-1.1,3.8c-1.3,1.7-3.7,2.1-5.5,0.8
		c-0.3-0.2-0.5-0.5-0.8-0.8c-0.8-1.1-1.2-2.5-1.1-3.9c-0.1-1.3,0.3-2.7,1.1-3.8c0.7-1,1.9-1.5,3.1-1.5
		C104.4,52.7,105.5,53.3,106.2,54.3z M101.5,58.1c0,1.8,0.7,3.1,1.7,3.1s1.7-1.2,1.7-3.1s-0.7-3.1-1.7-3.1S101.5,56.3,101.5,58.1z"
		/>
</g>
<g>
	<path class="st0" d="M53.2,22.4c-1.4,0-2.7,1.1-2.7,2.6c0,0.1,0,0.1,0,0.2c0,0.8,0.3,1.5,0.9,2c1.2,1,3,0.8,4-0.4l0,0v3.1
		c-0.7,0.3-1.5,0.5-2.3,0.5c-1.5,0-3-0.6-4-1.7c-0.9-0.9-1.4-2.2-1.3-3.5c0-2.9,2.3-5.3,5.2-5.3c0,0,0,0,0.1,0
		c0.8,0,1.6,0.2,2.4,0.5v3.1C54.9,22.8,54.1,22.4,53.2,22.4z"/>
	<path class="st0" d="M59.1,30.1h-2.8l3.8-10H63l3.8,10H64l-0.6-1.7h-3.6L59.1,30.1z M60.5,26.4h2.2l-1.1-3.2L60.5,26.4z"/>
	<path class="st0" d="M73.1,30.1l-2.5-3.8v3.8H68v-10h4c0.9-0.1,1.8,0.2,2.5,0.9c0.6,0.6,0.9,1.4,0.9,2.2c0,0.8-0.3,1.6-0.9,2.2
		c-0.4,0.3-0.8,0.5-1.3,0.6l3.2,4.1C76.4,30.1,73.1,30.1,73.1,30.1z M72.2,24.3c0.5-0.4,0.7-1.1,0.3-1.7c-0.1-0.1-0.2-0.2-0.3-0.3
		c-0.3-0.2-0.7-0.3-1.1-0.3h-0.5v2.5h0.5C71.4,24.6,71.8,24.5,72.2,24.3z"/>
	<path class="st0" d="M81.3,20.1c1.8,0,2.8,0.9,2.8,2.6c0.1,0.8-0.3,1.7-1.1,2.1c0.5,0,1,0.3,1.4,0.6c0.4,0.5,0.7,1.2,0.6,1.9
		c0,1.8-1.3,2.8-3.5,2.8h-4.2v-10H81.3z M81.7,23.1c0-0.7-0.4-1-1.2-1H80V24h0.5C81.3,24,81.7,23.7,81.7,23.1L81.7,23.1z M82.4,27
		c0-0.4-0.2-0.7-0.5-0.9C81.5,26,81,25.9,80.6,26H80v2.1h0.6C81.9,28.1,82.4,27.8,82.4,27L82.4,27z"/>
	<path class="st0" d="M95.8,21.5c2,2.2,1.9,5.6-0.3,7.6c-0.1,0-0.1,0.1-0.2,0.1c-1,0.9-2.4,1.3-3.7,1.3c-2.9,0.1-5.4-2.2-5.5-5.1
		c0-0.1,0-0.2,0-0.3c0-1.5,0.7-3,1.9-4c1-0.8,2.3-1.3,3.7-1.3C93.2,19.7,94.7,20.3,95.8,21.5z M88.9,25.1c0,1.6,1.2,2.8,2.8,2.9
		c1.6,0,2.8-1.2,2.9-2.8c0-1.6-1.2-2.8-2.8-2.9c0,0,0,0-0.1,0C90.1,22.3,88.9,23.5,88.9,25.1z"/>
	<path class="st0" d="M101.5,20.1l4.8,6.1v-6.1h2.6v10h-2.6l-4.8-6.1v6.1h-2.6v-10H101.5z"/>
	<path class="st0" d="M56.1,35.4c-1.4,0-2.7,1.1-2.7,2.6c0,0.1,0,0.1,0,0.2c0,0.8,0.3,1.5,0.9,2c1.2,1,3,0.8,4-0.4l0,0v3.1
		c-0.7,0.3-1.5,0.5-2.3,0.5c-1.5,0-3-0.6-4-1.7c-0.9-0.9-1.4-2.2-1.3-3.5c0-2.9,2.3-5.3,5.2-5.3c0,0,0,0,0.1,0
		c0.8,0,1.6,0.2,2.4,0.5v3.1C57.9,35.8,57,35.4,56.1,35.4z"/>
	<path class="st0" d="M65.4,43.1l-2.5-3.8v3.8h-2.6v-10h4c0.9-0.1,1.8,0.2,2.5,0.9c0.6,0.6,0.9,1.4,0.9,2.2s-0.3,1.6-0.9,2.2
		c-0.4,0.3-0.8,0.5-1.3,0.6l3.2,4.1H65.4z M64.5,37.3c0.5-0.4,0.7-1.1,0.3-1.7c-0.1-0.1-0.2-0.2-0.3-0.3c-0.3-0.2-0.7-0.3-1.1-0.3
		h-0.5v2.5h0.5C63.8,37.6,64.1,37.5,64.5,37.3z"/>
	<path class="st0" d="M72.3,37h2.9v2.2h-2.9v1.7h3.1v2.2h-5.7v-10h5.7v2.2h-3.1V37z"/>
	<path class="st0" d="M81.1,33.1c2.8,0.1,5,2.3,4.9,5.1c-0.1,2.7-2.2,4.9-4.9,4.9h-3.8v-10H81.1z M82.6,40.1c0.5-0.5,0.7-1.2,0.7-2
		c0-0.7-0.2-1.4-0.7-2s-1.3-0.9-2.1-0.8h-0.6v5.6h0.6C81.3,41,82.1,40.6,82.6,40.1z"/>
	<path class="st0" d="M87.7,43.1v-10h2.6v10H87.7z"/>
	<path class="st0" d="M93.6,43.1v-7.8h-2.1v-2.2h6.9v2.2h-2.2v7.8H93.6z"/>
	<path class="st0" d="M103.2,35c-0.6,0-1.1,0.4-1.1,0.9c0,0.2,0.1,0.4,0.2,0.5c0.3,0.2,0.4,0.3,1.6,0.6c1.7,0.5,2.5,1.3,2.5,2.8
		c0.1,1-0.3,1.9-1,2.6c-0.8,0.6-1.9,1-2.9,0.9c-1.2,0-2.5-0.4-3.5-1.1l1.1-2.1c0.6,0.6,1.4,1,2.3,1c0.8,0,1.3-0.4,1.3-1
		c0-0.5-0.3-0.8-1.6-1.2c-0.7-0.1-1.3-0.4-1.9-0.8c-0.6-0.5-0.9-1.2-0.8-2c-0.1-1.8,1.3-3.3,3.1-3.4c0.1,0,0.2,0,0.3,0
		c1.1,0,2.2,0.3,3.2,0.8l-1,2C104.5,35.3,103.9,35,103.2,35z"/>
</g>
</svg>
