<?xml version="1.0" encoding="utf-8"?>
<!-- Generator: Adobe Illustrator 26.3.1, SVG Export Plug-In . SVG Version: 6.00 Build 0)  -->
<svg version="1.1" id="UCAYALI_REGION_PERU" xmlns="http://www.w3.org/2000/svg" xmlns:xlink="http://www.w3.org/1999/xlink"
	 x="0px" y="0px" viewBox="0 0 126.3 120" style="enable-background:new 0 0 126.3 120;" xml:space="preserve">
<style type="text/css">
	.st0{fill:#003C88;}
	.st1{fill:#FFFFFF;}
</style>
<path class="st0" d="M107.9,50.1c6.2-2,10.7-7.9,10.7-14.7c0.2-7.7-5.5-14.3-13.1-15.4c-2.5-4.6-6.4-8-11.3-9.8
	c-5.1-1.9-10.6-1.7-15.6,0.4c-8.1-10.1-22.8-12.4-33.7-5c-1.3,0.9-2.6,2-3.9,3.3c-8.4-0.8-16.4,3.5-20.4,11
	c-3.6,0.5-6.9,2.3-9.4,5.1c-2.8,3.1-4.1,7.1-3.9,11.2c0.4,6.9,5.4,12.6,11.9,14.2v20.1V71h-8.4l52.2,13l52.3-13h-7.5V50.1z
	 M11.8,36.1c-0.2-3,0.8-5.8,2.8-8.1c2-2.2,4.7-3.6,7.6-3.7c0.8,0,1.5-0.5,1.9-1.3c2.8-6,8.6-9.7,15-9.7c0.8,0,1.6,0.1,2.4,0.2
	c0.7,0.1,1.4-0.2,1.9-0.7c1.4-1.5,2.6-2.6,3.9-3.5c9.4-6.4,22.2-4,28.6,5.3c0.6,0.9,1.8,1.2,2.8,0.7c0.2-0.1,0.3-0.1,0.4-0.2
	c0.2-0.1,0.4-0.2,0.6-0.3c4.1-1.9,8.6-2.1,12.8-0.5c4.2,1.5,7.5,4.6,9.4,8.7c0.3,0.7,1.1,1.2,1.9,1.3c5.8,0.3,10.4,5.3,10.2,11.1
	c0,6.1-5,11.1-11.1,11.1c-1.2,0-4.2,0-7.3,0.1c-3.6,0.1-7.2,0.1-9,0.1c-2.4,0-7.6,0.1-13.1,0.1C67.9,46.9,61.9,47,59,47
	c-1.9,0-6.3-0.1-10.5-0.2c-4-0.1-7.7-0.1-9.3-0.1c-1.7,0-5.3-0.1-8.8-0.1c-3.2,0-6.2-0.1-7.5-0.1C17,46.5,12.1,41.9,11.8,36.1z"/>
<g>
	<path class="st0" d="M7,102.2c-0.8,0.8-1.9,1.2-3,1.1c-1.2,0.1-2.3-0.4-3.1-1.2c-0.4-0.4-0.7-0.9-0.7-1.4h2.7
		c0.2,0.5,0.6,0.8,1.1,0.7c0.8,0.1,1.5-0.6,1.6-1.4c0-0.1,0-0.2,0-0.3v-0.6C5,99.7,4.3,100,3.5,100c-1.8,0-3.3-1.4-3.3-3.2
		c0-0.1,0-0.2,0-0.3c-0.1-1.9,1.4-3.6,3.3-3.7c0.1,0,0.1,0,0.2,0c0.8,0,1.5,0.3,2,0.9V93h2.4v6.3C8,100.4,7.7,101.4,7,102.2z
		 M2.5,96.4c0,0.9,0.7,1.5,1.5,1.6c0.9,0,1.5-0.7,1.6-1.5c0-0.9-0.7-1.5-1.5-1.6l0,0C3.2,94.9,2.5,95.6,2.5,96.4z"/>
	<path class="st0" d="M13.1,98.4c0.5,0,1-0.2,1.2-0.7h2.3c-0.1,0.4-0.3,0.9-0.6,1.2c-0.8,0.8-1.8,1.2-2.9,1.1
		c-2.4,0-3.9-1.4-3.9-3.6c-0.1-1.9,1.3-3.5,3.2-3.7c0.2,0,0.4,0,0.5,0c1.9-0.1,3.6,1.3,3.7,3.2c0,0.2,0,0.4,0,0.6v0.2h-5.1
		C11.6,97.9,12.1,98.4,13.1,98.4z M13,94.4c-0.7-0.1-1.3,0.4-1.4,1.1h2.8C14.3,94.8,13.7,94.4,13,94.4z"/>
	<path class="st0" d="M20.2,93.9c0.5-0.7,1.3-1.1,2.2-1c0.7,0,1.4,0.2,2,0.7c0.5,0.5,0.7,1.2,0.6,1.9v4.3h-2.4v-3.4
		c0-0.7,0-0.8-0.1-1.1c-0.2-0.3-0.6-0.6-1-0.5c-0.4,0-0.8,0.2-1,0.5s-0.3,0.6-0.3,0.9v3.7h-2.4V93h2.4L20.2,93.9z"/>
	<path class="st0" d="M30.1,98.4c0.5,0,1-0.2,1.2-0.7h2.3c-0.1,0.4-0.3,0.9-0.6,1.2c-0.8,0.8-1.8,1.2-2.9,1.1
		c-2.4,0-3.9-1.4-3.9-3.6c-0.1-1.9,1.3-3.5,3.2-3.7c0.2,0,0.4,0,0.5,0c1.9-0.1,3.6,1.3,3.7,3.2c0,0.2,0,0.4,0,0.6v0.2h-5.1
		C28.6,97.9,29.1,98.4,30.1,98.4z M30,94.4c-0.7-0.1-1.3,0.4-1.4,1.1h2.8C31.3,94.8,30.7,94.4,30,94.4z"/>
	<path class="st0" d="M37.2,94.2c0.4-0.8,1.3-1.3,2.2-1.2c0.2,0,0.2,0,0.5,0v2.3c-0.3-0.2-0.7-0.3-1-0.2c-1.1,0-1.7,0.7-1.7,1.9v2.9
		h-2.4V93h2.4V94.2z"/>
	<path class="st0" d="M48.6,99.8h-2.4v-0.7c-0.5,0.7-1.3,1-2.1,1c-1.9,0-3.5-1.6-3.4-3.6v-0.1c-0.1-1.9,1.4-3.5,3.3-3.6h0.1
		c0.8,0,1.6,0.3,2.1,0.9V93h2.4C48.6,93,48.6,99.8,48.6,99.8z M43.1,96.4c0,0.9,0.7,1.6,1.5,1.6s1.6-0.7,1.6-1.5
		c0-0.9-0.7-1.6-1.5-1.6l0,0C43.8,94.9,43.2,95.6,43.1,96.4z"/>
	<path class="st0" d="M51.2,99.4c-0.4-0.5-0.7-1.2-0.6-1.9V95h-0.8v-2h0.8v-2H53v2h1.6v2H53v2.7c0,0.4,0.2,0.6,0.6,0.6
		c0.3,0,0.6-0.1,0.9-0.3v1.9c-0.5,0.2-1,0.3-1.5,0.3C52.3,100.2,51.6,99.9,51.2,99.4z"/>
	<path class="st0" d="M59.4,98.4c0.5,0,1-0.2,1.2-0.7h2.3c-0.1,0.4-0.3,0.9-0.6,1.2c-0.8,0.8-1.8,1.2-2.9,1.1
		c-2.4,0-3.9-1.4-3.9-3.6c0-2.1,1.8-3.7,3.8-3.7c2.1,0,3.7,1.8,3.7,3.8l0,0v0.2h-5.1C57.9,97.9,58.4,98.4,59.4,98.4z M59.3,94.4
		c-0.7-0.1-1.3,0.4-1.4,1.1h2.8C60.6,94.8,60,94.4,59.3,94.4L59.3,94.4z"/>
	<path class="st0" d="M71.8,99.8h-2.4v-0.7c-0.5,0.7-1.3,1-2.1,1c-1.9,0-3.5-1.6-3.4-3.6v-0.1c-0.1-1.9,1.4-3.5,3.3-3.6h0.1
		c0.8,0,1.6,0.3,2.1,0.9v-4.9h2.4V99.8z M66.4,96.4c0,0.9,0.7,1.6,1.5,1.6s1.6-0.7,1.6-1.5c0-0.9-0.7-1.6-1.5-1.6l0,0
		C67.1,94.9,66.4,95.6,66.4,96.4z"/>
	<path class="st0" d="M77.7,99.4c-0.4-0.5-0.7-1.2-0.6-1.9V95h-0.8v-2h0.8v-2h2.4v2h1.6v2h-1.6v2.7c0,0.4,0.2,0.6,0.6,0.6
		c0.3,0,0.6-0.1,0.9-0.3v1.9c-0.5,0.2-1,0.3-1.5,0.3C78.9,100.2,78.2,99.9,77.7,99.4z"/>
	<path class="st0" d="M90.2,96.4c0,2.2-1.7,3.7-4.1,3.7c-2,0.2-3.9-1.3-4-3.4c0-0.1,0-0.2,0-0.3c0-1,0.5-2,1.2-2.6
		c0.8-0.6,1.8-1,2.9-0.9C88.5,92.8,90.2,94.3,90.2,96.4z M84.6,96.4c0,0.9,0.7,1.6,1.5,1.6s1.6-0.7,1.6-1.5s-0.7-1.6-1.5-1.6l0,0
		C85.3,94.9,84.6,95.6,84.6,96.4L84.6,96.4z"/>
	<path class="st0" d="M102.7,99.8h-2.4v-0.7c-0.5,0.7-1.3,1-2.1,1c-1.9,0-3.5-1.6-3.4-3.6v-0.1c-0.1-1.9,1.4-3.5,3.3-3.6h0.1
		c0.8,0,1.6,0.3,2.1,0.9v-4.9h2.4V99.8z M97.2,96.4c0,0.9,0.7,1.6,1.5,1.6s1.6-0.7,1.6-1.5c0-0.9-0.7-1.6-1.5-1.6l0,0
		C97.9,94.9,97.2,95.6,97.2,96.4L97.2,96.4z"/>
	<path class="st0" d="M111.9,99.8h-2.4v-0.7c-0.5,0.7-1.3,1-2.1,1c-1.9,0-3.5-1.6-3.4-3.6v-0.1c-0.1-1.9,1.4-3.5,3.3-3.6h0.1
		c0.8,0,1.6,0.3,2.1,0.9V93h2.4V99.8z M106.5,96.4c0,0.9,0.7,1.6,1.5,1.6s1.6-0.7,1.6-1.5c0-0.9-0.7-1.6-1.5-1.6l0,0
		C107.1,94.9,106.5,95.6,106.5,96.4z"/>
	<path class="st0" d="M114.5,99.4c-0.4-0.5-0.7-1.2-0.6-1.9V95h-0.8v-2h0.8v-2h2.4v2h1.6v2h-1.6v2.7c0,0.4,0.2,0.6,0.6,0.6
		c0.3,0,0.6-0.1,0.9-0.3v1.9c-0.5,0.2-1,0.3-1.5,0.3C115.6,100.2,115,99.9,114.5,99.4z"/>
	<path class="st0" d="M122.7,98.4c0.5,0,1-0.2,1.2-0.7h2.3c-0.1,0.4-0.3,0.9-0.6,1.2c-0.8,0.8-1.8,1.2-2.9,1.1
		c-2.4,0-3.9-1.4-3.9-3.6c0-2.1,1.8-3.7,3.8-3.7c2.1,0,3.7,1.8,3.7,3.8l0,0v0.2h-5.1C121.2,97.9,121.7,98.4,122.7,98.4z M122.6,94.4
		c-0.7-0.1-1.3,0.4-1.4,1.1h2.8C123.9,94.8,123.3,94.4,122.6,94.4L122.6,94.4z"/>
</g>
<g>
	<path class="st1" d="M33.7,63.1h-8l2.5-2.7c0.8-0.8,1.5-1.7,2.1-2.6c0.4-0.5,0.6-1.1,0.6-1.7c0-0.7-0.5-1.3-1.2-1.3l0,0
		c-0.6,0-1.1,0.5-1.1,1.1V56c0,0.1,0,0.3,0,0.4h-2.9c0-0.7,0.2-1.4,0.5-2c0.7-1.2,2-1.9,3.4-1.9c2-0.2,3.7,1.3,3.9,3.3
		c0,0.1,0,0.2,0,0.3c0,1.2-0.6,2.3-1.5,3.1l-1.7,1.6h3.3L33.7,63.1z"/>
	<path class="st1" d="M36,65h-1.5l1.7-4.4h2.2L36,65z"/>
	<path class="st1" d="M42.7,56.4c0.3,0,0.5-0.1,0.8-0.1c1.9,0,3.5,1.5,3.6,3.5c0,1.1-0.5,2.2-1.4,2.8c-0.8,0.6-1.8,0.8-2.8,0.8
		c-1.2,0-2.3-0.3-3.3-0.9l0.4-2.4c0.7,0.7,1.7,1.1,2.7,1.2c0.9,0.1,1.6-0.6,1.7-1.5l0,0c0-1-0.9-1.7-2.2-1.7c-0.7,0-1.3,0.1-1.9,0.4
		l0.9-5.4h5.2v2.2h-3.5L42.7,56.4z"/>
	<path class="st1" d="M55.6,54.3c0.8,1.1,1.2,2.5,1.1,3.8c0.1,1.4-0.3,2.7-1.1,3.8c-1.3,1.7-3.7,2.1-5.5,0.8
		c-0.3-0.2-0.5-0.5-0.8-0.8c-0.8-1.1-1.2-2.5-1.1-3.9c-0.1-1.3,0.3-2.7,1.1-3.8c0.7-1,1.9-1.5,3.1-1.5
		C53.8,52.7,54.9,53.3,55.6,54.3z M50.9,58.1c0,1.8,0.7,3.1,1.7,3.1s1.7-1.2,1.7-3.1S53.5,55,52.5,55S50.9,56.3,50.9,58.1z"/>
	<path class="st1" d="M65.5,54.3c0.8,1.1,1.2,2.5,1.1,3.8c0.1,1.4-0.3,2.7-1.1,3.8c-1.3,1.7-3.7,2.1-5.5,0.8
		c-0.3-0.2-0.5-0.5-0.8-0.8C58.4,60.8,58,59.4,58,58c-0.1-1.3,0.3-2.7,1.1-3.8c0.7-1,1.9-1.5,3.1-1.5C63.6,52.7,64.8,53.3,65.5,54.3
		z M60.7,58.1c0,1.8,0.7,3.1,1.7,3.1s1.7-1.2,1.7-3.1S63.4,55,62.4,55S60.7,56.3,60.7,58.1z"/>
	<path class="st1" d="M68.4,65h-1.5l1.7-4.4h2.2L68.4,65z"/>
	<path class="st1" d="M79.3,54.3c0.8,1.1,1.2,2.5,1.1,3.8c0.1,1.4-0.3,2.7-1.1,3.8c-1.3,1.7-3.7,2.1-5.5,0.8
		c-0.3-0.2-0.5-0.5-0.8-0.8c-0.8-1.1-1.2-2.5-1.1-3.9c-0.1-1.3,0.3-2.7,1.1-3.8c0.7-1,1.9-1.5,3.1-1.5
		C77.4,52.7,78.5,53.3,79.3,54.3z M74.5,58.1c0,1.8,0.7,3.1,1.7,3.1s1.7-1.2,1.7-3.1S77.1,55,76.2,55S74.5,56.3,74.5,58.1z"/>
	<path class="st1" d="M89.1,54.3c0.8,1.1,1.2,2.5,1.1,3.8c0.1,1.4-0.3,2.7-1.1,3.8c-1.3,1.7-3.7,2.1-5.5,0.8
		c-0.3-0.2-0.5-0.5-0.8-0.8c-0.8-1.1-1.2-2.5-1.1-3.9c-0.1-1.3,0.3-2.7,1.1-3.8c0.7-1,1.9-1.5,3.1-1.5
		C87.3,52.7,88.4,53.3,89.1,54.3z M84.4,58.1c0,1.8,0.7,3.1,1.7,3.1s1.7-1.2,1.7-3.1S87,55,86,55S84.4,56.3,84.4,58.1z"/>
	<path class="st1" d="M99,54.3c0.8,1.1,1.2,2.5,1.1,3.8c0.1,1.4-0.3,2.7-1.1,3.8c-1.3,1.7-3.7,2.1-5.5,0.8c-0.3-0.2-0.5-0.5-0.8-0.8
		c-0.8-1.1-1.2-2.5-1.1-3.9c-0.1-1.3,0.3-2.7,1.1-3.8c0.7-1,1.9-1.5,3.1-1.5C97.1,52.7,98.3,53.3,99,54.3z M94.2,58.1
		c0,1.8,0.7,3.1,1.7,3.1s1.7-1.2,1.7-3.1S96.9,55,95.9,55S94.2,56.3,94.2,58.1z"/>
</g>
<g>
	<path class="st0" d="M37.2,22.4c-1.4,0-2.7,1.1-2.7,2.6c0,0.1,0,0.1,0,0.2c0,0.8,0.3,1.5,0.9,2c1.2,1,3,0.8,4-0.4l0,0v3.1
		c-0.7,0.3-1.5,0.5-2.3,0.5c-1.5,0-3-0.6-4-1.7c-0.9-0.9-1.4-2.2-1.3-3.5c0-2.9,2.3-5.3,5.2-5.3c0,0,0,0,0.1,0
		c0.8,0,1.6,0.2,2.4,0.5v3.1C38.9,22.8,38.1,22.4,37.2,22.4z"/>
	<path class="st0" d="M43.2,30.1h-2.8l3.8-10H47l3.8,10H48l-0.6-1.7h-3.6L43.2,30.1z M44.6,26.4h2.2l-1.1-3.2L44.6,26.4z"/>
	<path class="st0" d="M57.1,30.1l-2.5-3.8v3.8H52v-10h4c0.9-0.1,1.8,0.2,2.5,0.9c0.6,0.6,0.9,1.4,0.9,2.2c0,0.8-0.3,1.6-0.9,2.2
		c-0.4,0.3-0.8,0.5-1.3,0.6l3.2,4.1C60.4,30.1,57.1,30.1,57.1,30.1z M56.2,24.3c0.5-0.4,0.7-1.1,0.3-1.7c-0.1-0.1-0.2-0.2-0.3-0.3
		c-0.3-0.2-0.7-0.3-1.1-0.3h-0.5v2.5h0.5C55.5,24.6,55.9,24.5,56.2,24.3z"/>
	<path class="st0" d="M65.4,20.1c1.8,0,2.8,0.9,2.8,2.6c0.1,0.8-0.3,1.7-1.1,2.1c0.5,0,1,0.3,1.4,0.6c0.4,0.5,0.7,1.2,0.6,1.9
		c0,1.8-1.3,2.8-3.5,2.8h-4.2v-10H65.4z M65.8,23.1c0-0.7-0.4-1-1.2-1h-0.5V24h0.5C65.4,24,65.8,23.7,65.8,23.1L65.8,23.1z M66.5,27
		c0-0.4-0.2-0.7-0.5-0.9c-0.4-0.2-0.9-0.2-1.4-0.2h-0.5V28h0.6C65.9,28.1,66.5,27.8,66.5,27L66.5,27z"/>
	<path class="st0" d="M79.8,21.5c2,2.2,1.9,5.6-0.3,7.6c-0.1,0-0.1,0.1-0.2,0.1c-1,0.9-2.4,1.3-3.7,1.3c-2.9,0.1-5.4-2.2-5.5-5.1
		c0-0.1,0-0.2,0-0.3c0-1.5,0.7-3,1.9-4c1-0.8,2.3-1.3,3.7-1.3C77.3,19.7,78.8,20.3,79.8,21.5z M72.9,25.1c0,1.6,1.2,2.8,2.8,2.9
		c1.6,0,2.8-1.2,2.9-2.8c0-1.6-1.2-2.8-2.8-2.9c0,0,0,0-0.1,0C74.2,22.3,72.9,23.5,72.9,25.1z"/>
	<path class="st0" d="M85.5,20.1l4.8,6.1v-6.1h2.6v10h-2.6L85.5,24v6.1h-2.6v-10H85.5z"/>
	<path class="st0" d="M40.2,35.4c-1.4,0-2.7,1.1-2.7,2.6c0,0.1,0,0.1,0,0.2c0,0.8,0.3,1.5,0.9,2c1.2,1,3,0.8,4-0.4l0,0v3.1
		c-0.7,0.3-1.5,0.5-2.3,0.5c-1.5,0-3-0.6-4-1.7c-0.9-0.9-1.4-2.2-1.3-3.5c0-2.9,2.3-5.3,5.2-5.3c0,0,0,0,0.1,0
		c0.8,0,1.6,0.2,2.4,0.5v3.1C41.9,35.8,41.1,35.4,40.2,35.4z"/>
	<path class="st0" d="M49.4,43.1l-2.5-3.8v3.8h-2.6v-10h4c0.9-0.1,1.8,0.2,2.5,0.9c0.6,0.6,0.9,1.4,0.9,2.2s-0.3,1.6-0.9,2.2
		c-0.4,0.3-0.8,0.5-1.3,0.6l3.2,4.1H49.4z M48.5,37.3c0.5-0.4,0.7-1.1,0.3-1.7c-0.1-0.1-0.2-0.2-0.3-0.3c-0.3-0.2-0.7-0.3-1.1-0.3
		h-0.5v2.5h0.5C47.8,37.6,48.2,37.5,48.5,37.3z"/>
	<path class="st0" d="M56.4,37h2.9v2.2h-2.9v1.7h3.1v2.2h-5.7v-10h5.7v2.2h-3.1V37z"/>
	<path class="st0" d="M65.2,33.1c2.8,0.1,5,2.3,4.9,5.1c-0.1,2.7-2.2,4.9-4.9,4.9h-3.8v-10H65.2z M66.7,40.1c0.5-0.5,0.7-1.2,0.7-2
		c0-0.7-0.2-1.4-0.7-2s-1.3-0.9-2.1-0.8H64v5.6h0.6C65.3,41,66.1,40.6,66.7,40.1z"/>
	<path class="st0" d="M71.8,43.1v-10h2.6v10H71.8z"/>
	<path class="st0" d="M77.6,43.1v-7.8h-2.1v-2.2h6.9v2.2h-2.2v7.8H77.6z"/>
	<path class="st0" d="M87.3,35c-0.6,0-1.1,0.4-1.1,0.9c0,0.2,0.1,0.4,0.2,0.5c0.3,0.2,0.4,0.3,1.6,0.6c1.7,0.5,2.5,1.3,2.5,2.8
		c0.1,1-0.3,1.9-1,2.6c-0.8,0.6-1.9,1-2.9,0.9c-1.2,0-2.5-0.4-3.5-1.1l1.1-2.1c0.6,0.6,1.4,1,2.3,1c0.8,0,1.3-0.4,1.3-1
		c0-0.5-0.3-0.8-1.6-1.2c-0.7-0.1-1.3-0.4-1.9-0.8c-0.6-0.5-0.9-1.2-0.8-2c-0.1-1.8,1.3-3.3,3.1-3.4c0.1,0,0.2,0,0.3,0
		c1.1,0,2.2,0.3,3.2,0.8l-1,2C88.5,35.3,87.9,35,87.3,35z"/>
</g>
</svg>
