<?xml version="1.0" encoding="utf-8"?>
<!-- Generator: Adobe Illustrator 24.2.3, SVG Export Plug-In . SVG Version: 6.00 Build 0)  -->
<svg version="1.1" id="Layer_1" xmlns="http://www.w3.org/2000/svg" xmlns:xlink="http://www.w3.org/1999/xlink" x="0px" y="0px"
	 viewBox="0 0 100 100" style="enable-background:new 0 0 100 100;" xml:space="preserve">
<style type="text/css">
	.st0{fill:#404040;}
</style>
<g>
	<g id="outline_1_">
		<path class="st0" d="M76.5,50c0-14.7-11.9-26.5-26.5-26.5c-14.7,0-26.5,11.9-26.5,26.5s11.9,26.5,26.5,26.5
			C64.6,76.5,76.5,64.6,76.5,50z M49.9,73.2c-12.8,0-23.2-10.4-23.2-23.2s10.4-23.2,23.2-23.2c12.8,0,23.2,10.4,23.2,23.2
			C73.1,62.8,62.8,73.2,49.9,73.2z"/>
	</g>
	<g>
		<path class="st0" d="M13.7,40.2l7.7,1.7l-0.5,2l-7.7-1.7L13.7,40.2z"/>
		<path class="st0" d="M21.4,40.9l-7.2-3.2l0.8-1.9l5.9-1.4l-4.4-2l0.8-1.9l7.2,3.2l-0.8,1.9L17.9,37l4.4,2L21.4,40.9z"/>
		<path class="st0" d="M25.2,33.1l-6-5l1.9-2.2c0.7-0.8,1.6-1.3,2.7-1.4c1.1-0.1,2,0.2,2.9,0.9c0.8,0.7,1.3,1.6,1.4,2.7
			c0.1,1.1-0.2,2.1-0.9,2.9L25.2,33.1z M21.8,27.6l3.4,2.8l0.3-0.4c0.4-0.5,0.6-1,0.6-1.5c0-0.6-0.3-1.1-0.9-1.6
			c-0.5-0.4-1.1-0.6-1.6-0.6c-0.6,0.1-1.1,0.4-1.5,0.9L21.8,27.6z"/>
		<path class="st0" d="M30,19.9L28,21.4l0.8,1l1.8-1.4l1.1,1.4l-1.8,1.4l0.8,1.1l1.9-1.5l1.1,1.4l-3.5,2.7l-4.8-6.2l3.5-2.7L30,19.9
			z"/>
		<path class="st0" d="M34.4,24.2l-3.5-7l2.8-1.4c0.8-0.4,1.5-0.5,2.1-0.4c0.7,0.2,1.2,0.6,1.6,1.4c0.8,1.6,0.3,2.8-1.3,3.6l-1,0.5
			l1.2,2.3L34.4,24.2z M33.5,17.7l0.9,1.8l0.3-0.2c0.4-0.2,0.7-0.4,0.9-0.6c0.2-0.3,0.2-0.6,0-1c-0.2-0.4-0.5-0.6-0.8-0.6
			c-0.2,0-0.5,0.1-1,0.3L33.5,17.7z"/>
		<path class="st0" d="M43.1,14.4L40.8,15l0.3,1.3l2.2-0.6l0.4,1.7L41.6,18l0.3,1.3l2.3-0.6l0.4,1.7l-4.3,1.1l-2-7.6l4.3-1.1
			L43.1,14.4z"/>
		<path class="st0" d="M45.5,20l-0.1-7.9l2,0l3.9,4.7l-0.1-4.8l2,0l0.1,7.9l-2,0l-3.9-4.7l0.1,4.8L45.5,20z"/>
		<path class="st0" d="M54.2,20.1l2-7.6l2.8,0.7c1.1,0.3,1.9,0.9,2.4,1.8c0.6,0.9,0.7,1.9,0.4,3C61.6,19,61,19.8,60,20.4
			c-0.9,0.5-2,0.7-3,0.4L54.2,20.1z M57.7,14.6l-1.1,4.3l0.4,0.1c0.6,0.2,1.2,0.1,1.7-0.1c0.5-0.3,0.9-0.8,1.1-1.5
			c0.2-0.7,0.1-1.2-0.2-1.7c-0.3-0.5-0.8-0.8-1.4-1L57.7,14.6z"/>
		<path class="st0" d="M68.1,18.7L66,17.6l-0.6,1.2l2.1,1l-0.8,1.5l-2.1-1L64,21.5l2.2,1.1l-0.8,1.5l-4-2l3.5-7l4,2L68.1,18.7z"/>
		<path class="st0" d="M66.2,24.5l5.1-6l1.6,1.3l-0.3,6.1l3.1-3.7l1.6,1.3l-5.1,6l-1.6-1.3l0.3-6.1l-3.1,3.7L66.2,24.5z"/>
		<path class="st0" d="M79.4,29.3l-4.9,3.6l-1.2-1.6l4.9-3.6l-1-1.4l1.4-1l3.2,4.4l-1.4,1L79.4,29.3z"/>
		<path class="st0" d="M83.6,33l-5.5,2.7l1.1,2.2l-1.5,0.8l-2-4l7-3.5L83.6,33z"/>
		<path class="st0" d="M81.7,39l3.1-3.9l0.7,2.3l-1.6,2l2.5,0.8l0.7,2.3L82.3,41L78.7,42l-0.6-2L81.7,39z"/>
	</g>
	<g>
		<path class="st0" d="M69.7,82.8l-4.6-6.4l2.4-1.7c0.9-0.6,1.9-0.9,3-0.7c1.1,0.2,1.9,0.7,2.6,1.6c0.6,0.9,0.9,1.9,0.7,3
			c-0.2,1.1-0.7,1.9-1.6,2.6L69.7,82.8z M67.8,76.6l2.6,3.6l0.4-0.3c0.5-0.4,0.9-0.8,1-1.3c0.1-0.6,0-1.2-0.4-1.8
			c-0.4-0.6-0.9-0.9-1.4-1c-0.6-0.1-1.1,0.1-1.7,0.5L67.8,76.6z"/>
		<path class="st0" d="M64.8,78.4l-2.2,1l0.5,1.2l2.1-0.9l0.7,1.6l-2.1,0.9l0.5,1.2l2.2-1l0.7,1.6l-4.1,1.8L60,78.6l4.1-1.8
			L64.8,78.4z"/>
		<path class="st0" d="M58.8,78.9l2,7.6l-2,0.5l-2-7.6L58.8,78.9z"/>
		<path class="st0" d="M56,81.4l-2.5,0.3l0.1,1.3l2.2-0.3l0.2,1.7l-2.2,0.3l0.3,3.1l-2,0.2l-0.9-7.8l4.5-0.5L56,81.4z"/>
		<path class="st0" d="M50.1,80.2L49.9,88l-2-0.1l0.2-7.9L50.1,80.2z"/>
		<path class="st0" d="M44.3,84.4l1.8,3.6l-2.5-0.5l-1.3-3.3l-0.6,3l-2-0.4l1.5-7.7l3,0.6c0.8,0.2,1.4,0.5,1.8,1
			c0.4,0.5,0.6,1.2,0.4,2c-0.1,0.6-0.3,1-0.7,1.3C45.3,84.2,44.9,84.4,44.3,84.4z M42.9,81l-0.4,1.9l0.2,0c0.9,0.2,1.5,0,1.6-0.7
			S44,81.2,43.1,81L42.9,81z"/>
		<path class="st0" d="M39.5,80.2l-2.2-0.9l-0.5,1.2l2.1,0.9L38.2,83l-2.1-0.9l-0.5,1.2l2.2,0.9l-0.7,1.6L33,84.1l3.1-7.2l4.1,1.7
			L39.5,80.2z"/>
		<path class="st0" d="M30.7,73.4l-1.2,5l4.3-2.8l1.8,1.3l-7.3,4.5l-1.3-0.9l1.9-8.3L30.7,73.4z"/>
	</g>
	<path class="st0" d="M50,77.7c-7.1,0-13.8-2.7-19-7.6c-5.4-5.1-8.4-12-8.7-19.4c-0.2-7.4,2.5-14.4,7.6-19.8
		c5.1-5.4,12-8.4,19.4-8.7c7.4-0.2,14.4,2.5,19.8,7.6c5.4,5.1,8.4,12,8.7,19.4c0.2,7.4-2.5,14.4-7.6,19.8c-5.1,5.4-12,8.4-19.4,8.7
		C50.5,77.7,50.2,77.7,50,77.7z M50,22.5c-0.3,0-0.5,0-0.8,0c-7.3,0.2-14.2,3.3-19.2,8.6c-5,5.3-7.7,12.3-7.5,19.7
		c0.2,7.3,3.3,14.2,8.6,19.2c5.3,5,12.3,7.7,19.7,7.5c15.2-0.4,27.1-13.1,26.7-28.2l0,0c-0.2-7.3-3.3-14.2-8.6-19.2
		C63.7,25.2,57.1,22.5,50,22.5z"/>
	<path class="st0" d="M96.6,50l2.6-5c0.3-0.6,0.2-1.3-0.2-1.8l-3.7-4.3l1.3-5.5c0.2-0.7-0.1-1.3-0.7-1.7l-4.6-3.3l-0.1-5.7
		c0-0.7-0.4-1.3-1.1-1.5L84.9,19l-1.4-5.5c-0.2-0.7-0.7-1.1-1.4-1.2l-5.6-0.7l-2.7-5c-0.3-0.6-1-0.9-1.6-0.9l-5.6,0.6l-3.8-4.2
		c-0.5-0.5-1.2-0.7-1.8-0.4l-5.3,2l-4.7-3.2c-0.6-0.4-1.3-0.4-1.9,0l-4.7,3.2l-5.3-2c-0.6-0.2-1.3-0.1-1.8,0.4l-3.8,4.2l-5.6-0.6
		c-0.7-0.1-1.3,0.3-1.6,0.9l-2.7,5l-5.6,0.7c-0.7,0.1-1.2,0.6-1.4,1.2L15,19l-5.3,2.1c-0.6,0.2-1,0.9-1.1,1.5l-0.1,5.7L4,31.5
		c-0.6,0.4-0.8,1.1-0.7,1.7l1.3,5.5l-3.7,4.3c-0.4,0.5-0.5,1.2-0.2,1.8l2.6,5l-2.6,5c-0.3,0.6-0.2,1.3,0.2,1.8l3.7,4.3l-1.3,5.5
		C3.2,67.3,3.4,68,4,68.4l4.6,3.3l0.1,5.7c0,0.7,0.4,1.3,1.1,1.5l5.3,2.1l1.4,5.5c0.2,0.7,0.7,1.1,1.4,1.2l5.6,0.7l2.7,5
		c0.3,0.6,1,0.9,1.6,0.9l5.6-0.6l3.8,4.2c0.5,0.5,1.2,0.7,1.8,0.4l5.3-2l4.7,3.2c0.6,0.4,1.3,0.4,1.9,0l4.7-3.2l5.3,2
		c0.6,0.2,1.3,0.1,1.8-0.4l3.8-4.2l5.6,0.6c0.7,0.1,1.3-0.3,1.6-0.9l2.7-5l5.6-0.7c0.7-0.1,1.2-0.6,1.4-1.2l1.4-5.5l5.3-2.1
		c0.6-0.2,1-0.9,1.1-1.5l0.1-5.7l4.6-3.3c0.6-0.4,0.8-1.1,0.7-1.7l-1.3-5.5l3.7-4.3c0.4-0.5,0.5-1.2,0.2-1.8L96.6,50z M8.3,51.2
		C7.6,28.1,25.8,8.9,48.8,8.3s42.3,17.5,42.9,40.6c0.6,23-17.5,42.3-40.6,42.9C28.1,92.4,8.9,74.2,8.3,51.2z"/>
	<path class="st0" d="M50,90.8c-10.5,0-20.3-3.9-28-11.1C14.1,72.1,9.6,62,9.3,51.1C8.6,28.7,26.4,9.9,48.9,9.3
		C59.7,9,70.1,12.9,78,20.4c7.9,7.5,12.4,17.6,12.7,28.5C91,59.8,87.1,70.1,79.6,78C72.1,85.9,62,90.4,51.1,90.7
		C50.7,90.7,50.4,90.8,50,90.8z M50,9.5c-0.4,0-0.8,0-1.2,0c-22.3,0.6-40,19.3-39.4,41.6C9.8,62,14.3,72,22.1,79.5
		c7.6,7.2,17.4,11.1,27.8,11.1c0.4,0,0.8,0,1.2,0c10.8-0.3,20.9-4.8,28.3-12.7c7.4-7.9,11.4-18.2,11.1-29
		C90.2,38.1,85.7,28,77.9,20.6C70.3,13.4,60.4,9.5,50,9.5z"/>
	<polygon class="st0" points="43.6,65.1 32.3,53.8 36.7,49.4 43.6,56.3 61.8,38.1 66.2,42.5 	"/>
</g>
</svg>
