<?xml version="1.0" encoding="utf-8"?>
<!-- Generator: Adobe Illustrator 26.3.1, SVG Export Plug-In . SVG Version: 6.00 Build 0)  -->
<svg version="1.1" id="HOUJI_CHINA" xmlns="http://www.w3.org/2000/svg" xmlns:xlink="http://www.w3.org/1999/xlink" x="0px"
	 y="0px" viewBox="0 0 111.7 120" style="enable-background:new 0 0 111.7 120;" xml:space="preserve">
<style type="text/css">
	.st0{fill:#641964;}
	.st1{fill:#FFFFFF;}
</style>
<path class="st0" d="M100.7,50.2c6.3-2,10.8-7.9,10.8-14.8c0.1-7.8-5.6-14.3-13.2-15.4c-5.1-9.5-16.8-13.7-26.9-9.4
	c-8.1-10.1-22.8-12.4-33.7-5c-1.3,0.9-2.6,2-3.9,3.3c-8.4-0.8-16.4,3.5-20.4,11c-3.6,0.5-6.9,2.3-9.3,5C1.4,28.2,0,32.2,0.3,36.3
	c0.4,6.9,5.3,12.5,11.8,14.1v20.1V71H3.7l52.2,13l52.3-13h-7.5V50.2z M4.7,36c-0.2-3,0.8-5.8,2.8-8.1c2-2.2,4.6-3.5,7.6-3.7
	c0.8,0,1.5-0.5,1.9-1.3c2.8-6,8.6-9.7,15-9.7c0.8,0,1.6,0.1,2.4,0.2c0.7,0.1,1.4-0.2,1.9-0.7c1.3-1.4,2.6-2.6,3.9-3.5
	c9.4-6.4,22.2-4,28.6,5.3c0.6,0.9,1.8,1.2,2.8,0.7c0.2-0.1,0.3-0.1,0.4-0.2c0.2-0.1,0.4-0.2,0.6-0.3C81.1,11,91,14.7,94.9,23
	c0.3,0.7,1.1,1.2,1.9,1.3c5.8,0.3,10.4,5.3,10.3,11.1c0,6.1-5,11.1-11.1,11.1c-1.2,0-4.2,0-7.3,0.1c-3.6,0.1-7.2,0.1-9,0.1
	c-2.4,0-7.6,0.1-13.1,0.1C60.8,46.9,54.8,47,51.9,47c-1.9,0-6.3-0.1-10.5-0.2c-4-0.1-7.7-0.1-9.3-0.1c-1.7,0-5.3-0.1-8.8-0.1
	c-3.2,0-6.2-0.1-7.5-0.1C9.9,46.5,5,41.9,4.7,36z"/>
<g>
	<path class="st0" d="M26.9,102.2c-0.8,0.8-1.9,1.2-3,1.1c-1.2,0.1-2.3-0.4-3.1-1.2c-0.4-0.4-0.7-0.9-0.7-1.4h2.7
		c0.2,0.5,0.6,0.8,1.1,0.7c0.8,0.1,1.5-0.6,1.6-1.4c0-0.1,0-0.2,0-0.3v-0.6c-0.6,0.6-1.3,0.9-2.1,0.9c-1.8,0-3.3-1.4-3.3-3.2
		c0-0.1,0-0.2,0-0.3c-0.1-1.9,1.4-3.6,3.3-3.7c0.1,0,0.1,0,0.2,0c0.8,0,1.5,0.3,2,0.9V93H28v6.3C27.9,100.4,27.6,101.4,26.9,102.2z
		 M22.4,96.4c0,0.9,0.7,1.5,1.5,1.6s1.5-0.7,1.6-1.5c0-0.9-0.7-1.5-1.5-1.6l0,0C23.1,94.9,22.4,95.6,22.4,96.4z"/>
	<path class="st0" d="M32.9,98.4c0.5,0,1-0.2,1.2-0.7h2.3c-0.1,0.4-0.3,0.9-0.6,1.2c-0.8,0.8-1.8,1.2-2.9,1.1
		c-2.4,0-3.9-1.4-3.9-3.6c-0.1-1.9,1.3-3.5,3.2-3.7c0.2,0,0.4,0,0.5,0c1.9-0.1,3.6,1.3,3.7,3.2c0,0.2,0,0.4,0,0.6v0.2h-5.1
		C31.5,97.9,32,98.4,32.9,98.4z M32.9,94.4c-0.7-0.1-1.3,0.4-1.4,1.1h2.8C34.2,94.8,33.6,94.4,32.9,94.4L32.9,94.4z"/>
	<path class="st0" d="M40.1,93.9c0.5-0.7,1.3-1.1,2.2-1c0.7,0,1.4,0.2,2,0.7c0.5,0.5,0.7,1.2,0.6,1.9v4.3h-2.4v-3.4
		c0-0.7,0-0.8-0.1-1.1c-0.2-0.3-0.6-0.6-1-0.5c-0.4,0-0.8,0.2-1,0.5s-0.3,0.6-0.3,0.9v3.7h-2.4V93h2.4V93.9z"/>
	<path class="st0" d="M49.9,98.4c0.5,0,1-0.2,1.2-0.7h2.3c-0.1,0.4-0.3,0.9-0.6,1.2c-0.8,0.8-1.8,1.2-2.9,1.1
		c-2.4,0-3.9-1.4-3.9-3.6c0-2.1,1.8-3.7,3.8-3.7c2.1,0,3.7,1.8,3.7,3.8l0,0v0.2h-5.1C48.5,97.9,49,98.4,49.9,98.4z M49.9,94.4
		c-0.7-0.1-1.3,0.4-1.4,1.1h2.8C51.2,94.8,50.6,94.4,49.9,94.4L49.9,94.4z"/>
	<path class="st0" d="M57.1,94.2c0.4-0.8,1.3-1.3,2.2-1.2c0.2,0,0.2,0,0.5,0v2.3c-0.3-0.2-0.7-0.3-1-0.2c-1.1,0-1.7,0.7-1.7,1.9v2.9
		h-2.4V93h2.4V94.2z"/>
	<path class="st0" d="M68.5,99.8h-2.4v-0.7c-0.5,0.7-1.3,1-2.1,1c-1.9,0-3.5-1.6-3.4-3.6v-0.1c-0.1-1.9,1.4-3.5,3.3-3.6H64
		c0.8,0,1.6,0.3,2.1,0.9V93h2.4V99.8z M63,96.4c0,0.9,0.7,1.6,1.5,1.6c0.9,0,1.6-0.7,1.6-1.5s-0.7-1.6-1.5-1.6l0,0
		C63.7,94.9,63,95.6,63,96.4z"/>
	<path class="st0" d="M71.1,99.4c-0.4-0.5-0.7-1.2-0.6-1.9V95h-0.8v-2h0.8v-2h2.4v2h1.6v2h-1.6v2.7c0,0.4,0.2,0.6,0.6,0.6
		c0.3,0,0.6-0.1,0.9-0.3v1.9c-0.5,0.2-1,0.3-1.5,0.3C72.2,100.2,71.5,99.9,71.1,99.4z"/>
	<path class="st0" d="M79.2,98.4c0.5,0,1-0.2,1.2-0.7h2.3c-0.1,0.4-0.3,0.9-0.6,1.2c-0.8,0.8-1.8,1.2-2.9,1.1
		c-2.4,0-3.9-1.4-3.9-3.6c0-2.1,1.8-3.7,3.8-3.7s3.7,1.8,3.7,3.8v0.2h-5.1C77.8,97.9,78.3,98.4,79.2,98.4z M79.2,94.4
		c-0.7-0.1-1.3,0.4-1.4,1.1h2.8C80.5,94.8,79.9,94.4,79.2,94.4L79.2,94.4z"/>
	<path class="st0" d="M91.7,99.8h-2.4v-0.7c-0.5,0.7-1.3,1-2.1,1c-1.9,0-3.5-1.6-3.4-3.6v-0.1c-0.1-1.9,1.4-3.5,3.3-3.6h0.1
		c0.8,0,1.6,0.3,2.1,0.9v-4.9h2.4V99.8z M86.3,96.4c0,0.9,0.7,1.6,1.5,1.6s1.6-0.7,1.6-1.5c0-0.9-0.7-1.6-1.5-1.6l0,0
		C87,94.9,86.3,95.6,86.3,96.4z"/>
	<path class="st0" d="M26.1,114.4c0.5,0,1-0.2,1.2-0.7h2.3c-0.1,0.4-0.3,0.9-0.6,1.2c-0.8,0.8-1.8,1.2-2.9,1.1
		c-2.4,0-3.9-1.4-3.9-3.6c-0.1-1.9,1.3-3.5,3.2-3.7c0.2,0,0.4,0,0.5,0c1.9-0.1,3.6,1.3,3.7,3.2c0,0.2,0,0.4,0,0.6v0.2h-5.1
		C24.7,113.9,25.1,114.4,26.1,114.4z M26.1,110.3c-0.7-0.1-1.3,0.4-1.4,1.1h2.8C27.3,110.8,26.7,110.3,26.1,110.3z"/>
	<path class="st0" d="M38.6,115.8h-2.4V115c-0.5,0.7-1.3,1-2.1,1c-1.9,0-3.5-1.6-3.4-3.6v-0.1c-0.1-1.9,1.4-3.5,3.3-3.6h0.1
		c0.8,0,1.6,0.3,2.1,0.9V109h2.4V115.8z M33.1,112.4c0,0.9,0.7,1.6,1.5,1.6c0.9,0,1.6-0.7,1.6-1.5c0-0.9-0.7-1.6-1.5-1.6l0,0
		C33.8,110.8,33.2,111.5,33.1,112.4z"/>
	<path class="st0" d="M43.9,110.8c-0.9,0-1.7,0.7-1.7,1.7s0.7,1.7,1.7,1.7c0.5,0,0.9-0.2,1.2-0.5v2c-0.5,0.2-1.1,0.4-1.7,0.4
		c-2,0.1-3.7-1.5-3.7-3.5c-0.1-2,1.5-3.7,3.5-3.7c0.1,0,0.2,0,0.3,0c0.6,0,1.1,0.1,1.6,0.4v2C44.8,110.9,44.4,110.8,43.9,110.8z"/>
	<path class="st0" d="M49,109.9c0.5-0.7,1.3-1.1,2.2-1c0.7,0,1.4,0.2,2,0.7c0.5,0.5,0.7,1.2,0.6,1.9v4.3h-2.4v-3.4
		c0-0.7,0-0.8-0.1-1.1c-0.2-0.3-0.6-0.6-1-0.5c-0.4,0-0.8,0.2-1,0.5s-0.3,0.6-0.3,0.9v3.7h-2.4v-11H49V109.9z"/>
	<path class="st0" d="M60.7,109l1.8,3.5l1.8-3.5H67l-5.5,10.2h-2.7l2.3-4.3l-3.3-5.9C57.8,109,60.7,109,60.7,109z"/>
	<path class="st0" d="M70.9,114.4c0.5,0,1-0.2,1.2-0.7h2.3c-0.1,0.4-0.3,0.9-0.6,1.2c-0.8,0.8-1.8,1.2-2.9,1.1
		c-2.4,0-3.9-1.4-3.9-3.6c0-2.1,1.8-3.7,3.8-3.7c2.1,0,3.7,1.8,3.7,3.8l0,0v0.2h-5.1C69.5,113.9,70,114.4,70.9,114.4z M70.9,110.3
		c-0.7-0.1-1.3,0.4-1.4,1.1h2.8C72.2,110.8,71.6,110.3,70.9,110.3z"/>
	<path class="st0" d="M83.4,115.8H81V115c-0.5,0.7-1.3,1-2.1,1c-1.9,0-3.5-1.6-3.4-3.6v-0.1c-0.1-1.9,1.4-3.5,3.3-3.6h0.1
		c0.8,0,1.6,0.3,2.1,0.9V109h2.4V115.8z M78,112.4c0,0.9,0.7,1.6,1.5,1.6c0.9,0,1.6-0.7,1.6-1.5c0-0.9-0.7-1.6-1.5-1.6l0,0
		C78.7,110.8,78,111.5,78,112.4z"/>
	<path class="st0" d="M87.2,110.1c0.4-0.8,1.3-1.3,2.2-1.2c0.2,0,0.2,0,0.5,0v2.3c-0.3-0.2-0.7-0.3-1-0.2c-1.1,0-1.7,0.7-1.7,1.9
		v2.9h-2.4V109h2.4V110.1z"/>
</g>
<g>
	<path class="st1" d="M28.7,53.1h4v10h-2.6v-7.8h-1.4V53.1z"/>
	<path class="st1" d="M41.9,54.3c0.8,1.1,1.2,2.5,1.1,3.8c0.1,1.4-0.3,2.7-1.1,3.8c-1.3,1.7-3.7,2.1-5.5,0.8
		c-0.3-0.2-0.5-0.5-0.8-0.8c-0.8-1.1-1.2-2.5-1.1-3.9c-0.1-1.3,0.3-2.7,1.1-3.8c0.7-1,1.9-1.5,3.1-1.5
		C40.1,52.7,41.2,53.3,41.9,54.3z M37.2,58.1c0,1.8,0.7,3.1,1.7,3.1s1.7-1.2,1.7-3.1S39.8,55,38.8,55S37.2,56.3,37.2,58.1L37.2,58.1
		z"/>
	<path class="st1" d="M48.8,59.7c-0.4,0.2-0.9,0.3-1.4,0.3c-1.8,0-3.3-1.6-3.2-3.4v-0.1c0-2.3,1.7-3.8,4.3-3.8
		c1.2-0.1,2.3,0.3,3.2,1.1c0.7,0.7,1,1.6,1,2.5c-0.1,1.4-0.6,2.7-1.5,3.8L48.9,63h-3L48.8,59.7z M46.8,56.4c0,0.9,0.7,1.7,1.6,1.7
		s1.7-0.7,1.7-1.6s-0.7-1.7-1.6-1.7l0,0C47.5,54.7,46.8,55.4,46.8,56.4L46.8,56.4z"/>
	<path class="st1" d="M53.5,65H52l1.7-4.4H56L53.5,65z"/>
	<path class="st1" d="M64.6,63.1h-8l2.5-2.7c0.8-0.8,1.5-1.7,2.1-2.6c0.4-0.5,0.6-1.1,0.6-1.7c0-0.7-0.5-1.3-1.2-1.3l0,0
		c-0.6,0-1.1,0.5-1.1,1.1V56c0,0.1,0,0.3,0,0.4h-2.9c0-0.7,0.2-1.4,0.5-2c1.1-1.8,3.6-2.4,5.4-1.3c1.1,0.7,1.8,1.8,1.9,3
		c0,1.2-0.6,2.3-1.5,3.1l-1.7,1.6h3.3v2.3H64.6z"/>
	<path class="st1" d="M70.3,59.7c-0.4,0.2-0.9,0.3-1.4,0.3c-1.8,0-3.3-1.5-3.2-3.4v-0.1c0-2.3,1.7-3.8,4.3-3.8
		c1.2-0.1,2.3,0.3,3.2,1.1c0.7,0.7,1,1.6,1,2.5c-0.1,1.4-0.6,2.7-1.5,3.8L70.5,63h-2.9L70.3,59.7z M68.3,56.4c0,0.9,0.7,1.7,1.6,1.7
		s1.7-0.7,1.7-1.6s-0.7-1.7-1.6-1.7l0,0C69.1,54.7,68.3,55.4,68.3,56.4L68.3,56.4z"/>
	<path class="st1" d="M83.2,61H82v2.1h-2.4V61h-4.9v-1.7l3.9-6.3H82v6h1.2V61z M77.2,59h2.4v-3.9L77.2,59z"/>
</g>
<g>
	<path class="st0" d="M30,22.4c-1.4,0-2.7,1.1-2.7,2.6c0,0.1,0,0.1,0,0.2c0,0.8,0.3,1.5,0.9,2c1.2,1,3,0.8,4-0.4l0,0v3.1
		c-0.7,0.3-1.5,0.5-2.3,0.5c-1.5,0-3-0.6-4-1.7c-0.9-0.9-1.4-2.2-1.3-3.5c0-2.9,2.3-5.3,5.2-5.3c0,0,0,0,0.1,0
		c0.8,0,1.6,0.2,2.4,0.5v3.1C31.7,22.8,30.9,22.4,30,22.4z"/>
	<path class="st0" d="M36,30.1h-2.8l3.8-10h2.8l3.8,10h-2.8l-0.6-1.7h-3.6L36,30.1z M37.4,26.4h2.2l-1.1-3.2L37.4,26.4z"/>
	<path class="st0" d="M49.9,30.1l-2.5-3.8v3.8h-2.6v-10h4c0.9-0.1,1.8,0.2,2.5,0.9c0.6,0.6,0.9,1.4,0.9,2.2c0,0.8-0.3,1.6-0.9,2.2
		c-0.4,0.3-0.8,0.5-1.3,0.6l3.2,4.1C53.2,30.1,49.9,30.1,49.9,30.1z M49,24.3c0.5-0.4,0.7-1.1,0.3-1.7c-0.1-0.1-0.2-0.2-0.3-0.3
		c-0.3-0.2-0.7-0.3-1.1-0.3h-0.5v2.5h0.5C48.3,24.6,48.7,24.5,49,24.3z"/>
	<path class="st0" d="M58.1,20.1c1.8,0,2.8,0.9,2.8,2.6c0.1,0.8-0.3,1.7-1.1,2.1c0.5,0,1,0.3,1.4,0.6c0.4,0.5,0.7,1.2,0.6,1.9
		c0,1.8-1.3,2.8-3.5,2.8h-4.2v-10H58.1z M58.6,23.1c0-0.7-0.4-1-1.2-1h-0.5V24h0.5C58.1,24,58.6,23.7,58.6,23.1L58.6,23.1z M59.3,27
		c0-0.4-0.2-0.7-0.5-0.9c-0.4-0.2-0.9-0.2-1.4-0.2h-0.5V28h0.6C58.7,28.1,59.3,27.8,59.3,27L59.3,27z"/>
	<path class="st0" d="M72.6,21.5c2,2.2,1.9,5.6-0.3,7.6c-0.1,0-0.1,0.1-0.2,0.1c-1,0.9-2.4,1.3-3.7,1.3c-2.9,0.1-5.4-2.2-5.5-5.1
		c0-0.1,0-0.2,0-0.3c0-1.5,0.7-3,1.9-4c1-0.8,2.3-1.3,3.7-1.3C70.1,19.7,71.5,20.3,72.6,21.5z M65.7,25.1c0,1.6,1.2,2.8,2.8,2.9
		c1.6,0,2.8-1.2,2.9-2.8c0-1.6-1.2-2.8-2.8-2.9c0,0,0,0-0.1,0C67,22.3,65.7,23.5,65.7,25.1z"/>
	<path class="st0" d="M78.3,20.1l4.8,6.1v-6.1h2.6v10h-2.6L78.3,24v6.1h-2.6v-10H78.3z"/>
	<path class="st0" d="M33,35.4c-1.4,0-2.7,1.1-2.7,2.6c0,0.1,0,0.1,0,0.2c0,0.8,0.3,1.5,0.9,2c1.2,1,3,0.8,4-0.4l0,0v3.1
		c-0.7,0.3-1.5,0.5-2.3,0.5c-1.5,0-3-0.6-4-1.7c-0.9-0.9-1.4-2.2-1.3-3.5c0-2.9,2.3-5.3,5.2-5.3c0,0,0,0,0.1,0
		c0.8,0,1.6,0.2,2.4,0.5v3.1C34.7,35.8,33.9,35.4,33,35.4z"/>
	<path class="st0" d="M42.2,43.1l-2.5-3.8v3.8h-2.6v-10h4c0.9-0.1,1.8,0.2,2.5,0.9c0.6,0.6,0.9,1.4,0.9,2.2s-0.3,1.6-0.9,2.2
		c-0.4,0.3-0.8,0.5-1.3,0.6l3.2,4.1H42.2z M41.3,37.3c0.5-0.4,0.7-1.1,0.3-1.7c-0.1-0.1-0.2-0.2-0.3-0.3C41,35.1,40.6,35,40.2,35
		h-0.5v2.5h0.5C40.6,37.6,41,37.5,41.3,37.3z"/>
	<path class="st0" d="M49.2,37h2.9v2.2h-2.9v1.7h3.1v2.2h-5.7v-10h5.7v2.2h-3.1V37z"/>
	<path class="st0" d="M58,33.1c2.8,0.1,5,2.3,4.9,5.1c-0.1,2.7-2.2,4.9-4.9,4.9h-3.8v-10H58z M59.5,40.1c0.5-0.5,0.7-1.2,0.7-2
		c0-0.7-0.2-1.4-0.7-2s-1.3-0.9-2.1-0.8h-0.6v5.6h0.6C58.1,41,58.9,40.6,59.5,40.1z"/>
	<path class="st0" d="M64.5,43.1v-10h2.6v10H64.5z"/>
	<path class="st0" d="M70.4,43.1v-7.8h-2.1v-2.2h6.9v2.2H73v7.8H70.4z"/>
	<path class="st0" d="M80.1,35c-0.6,0-1.1,0.4-1.1,0.9c0,0.2,0.1,0.4,0.2,0.5c0.3,0.2,0.4,0.3,1.6,0.6c1.7,0.5,2.5,1.3,2.5,2.8
		c0.1,1-0.3,1.9-1,2.6c-0.8,0.6-1.9,1-2.9,0.9c-1.2,0-2.5-0.4-3.5-1.1l1.1-2.1c0.6,0.6,1.4,1,2.3,1c0.8,0,1.3-0.4,1.3-1
		c0-0.5-0.3-0.8-1.6-1.2c-0.7-0.1-1.3-0.4-1.9-0.8c-0.6-0.5-0.9-1.2-0.8-2c-0.1-1.8,1.3-3.3,3.1-3.4c0.1,0,0.2,0,0.3,0
		c1.1,0,2.2,0.3,3.2,0.8l-1,2C81.3,35.3,80.7,35,80.1,35z"/>
</g>
</svg>
