<?xml version="1.0" encoding="UTF-8"?>
<svg id="PARQUE_EOLICO_MALDONADO_URUGUAY" data-name="PARQUE EOLICO MALDONADO, URUGUAY" xmlns="http://www.w3.org/2000/svg" viewBox="0 0 163.065 120">
  <rect width="163.065" height="120" style="fill: #fff;"/>
  <polygon points="123.863 70.97 123.863 70.97 123.734 70.97 123.863 70.97 123.863 48.005 79.554 48.005 35.244 48.005 35.244 70.551 35.244 70.97 26.823 70.97 79.079 84.005 131.335 70.97 123.863 70.97" style="fill: #0097bb;"/>
  <g>
    <path d="m53.759,57.029h4.245v10.562h-2.731v-8.236h-1.514v-2.325Z" style="fill: #fff;"/>
    <path d="m67.204,58.262c.827,1.037,1.205,2.312,1.205,4.048s-.378,2.998-1.205,4.048c-.84,1.065-1.961,1.625-3.264,1.625-1.316,0-2.438-.546-3.277-1.625-.841-1.078-1.205-2.297-1.205-4.132,0-1.625.42-2.984,1.205-3.964.868-1.064,1.989-1.625,3.277-1.625,1.303,0,2.409.561,3.264,1.625Zm-5.015,4.048c0,1.947.715,3.264,1.751,3.264s1.751-1.317,1.751-3.236-.714-3.25-1.751-3.25c-1.022,0-1.751,1.331-1.751,3.222Z" style="fill: #fff;"/>
    <path d="m73.95,63.991c-.645.266-.994.336-1.484.336-1.947,0-3.418-1.597-3.418-3.698,0-2.395,1.835-4.02,4.538-4.02,1.401,0,2.563.406,3.32,1.205.7.729,1.093,1.667,1.093,2.675,0,1.205-.603,2.718-1.583,4.021l-2.367,3.082h-3.11l3.012-3.6Zm-2.101-3.502c0,.981.784,1.751,1.751,1.751s1.736-.77,1.736-1.737-.771-1.751-1.736-1.751c-.953,0-1.751.785-1.751,1.737Z" style="fill: #fff;"/>
    <path d="m79.589,69.552h-1.624l1.82-4.636h2.367l-2.563,4.636Z" style="fill: #fff;"/>
    <path d="m83.44,59.69c0-.756.378-1.583,1.008-2.129.589-.532,1.527-.812,2.605-.812,2.144,0,3.586,1.19,3.586,2.956,0,.729-.252,1.331-.742,1.751-.252.196-.462.322-.98.574.631.238.938.42,1.247.7.574.504.91,1.247.91,2.017,0,1.779-1.709,3.11-4.021,3.11-1.204,0-2.381-.406-3.138-1.093-.602-.532-.91-1.218-.91-2.017,0-.812.351-1.569.938-2.073.309-.28.574-.42,1.163-.645-1.093-.448-1.667-1.261-1.667-2.339Zm2.339,4.707c0,.714.561,1.275,1.274,1.275.673,0,1.247-.561,1.247-1.261s-.561-1.275-1.274-1.275c-.673,0-1.247.575-1.247,1.261Zm.099-4.65c0,.645.518,1.163,1.176,1.163.631,0,1.149-.518,1.149-1.163s-.519-1.163-1.177-1.163c-.631,0-1.148.518-1.148,1.163Z" style="fill: #fff;"/>
    <path d="m91.811,57.029h4.245v10.562h-2.731v-8.236h-1.514v-2.325Z" style="fill: #fff;"/>
    <path d="m97.818,59.69c0-.756.378-1.583,1.008-2.129.589-.532,1.527-.812,2.605-.812,2.144,0,3.586,1.19,3.586,2.956,0,.729-.252,1.331-.742,1.751-.252.196-.462.322-.98.574.631.238.938.42,1.247.7.574.504.91,1.247.91,2.017,0,1.779-1.709,3.11-4.021,3.11-1.204,0-2.381-.406-3.138-1.093-.602-.532-.91-1.218-.91-2.017,0-.812.351-1.569.938-2.073.309-.28.574-.42,1.163-.645-1.093-.448-1.667-1.261-1.667-2.339Zm2.339,4.707c0,.714.561,1.275,1.274,1.275.673,0,1.247-.561,1.247-1.261s-.561-1.275-1.274-1.275c-.673,0-1.247.575-1.247,1.261Zm.099-4.65c0,.645.518,1.163,1.176,1.163.631,0,1.149-.518,1.149-1.163s-.519-1.163-1.177-1.163c-.631,0-1.148.518-1.148,1.163Z" style="fill: #fff;"/>
  </g>
  <path d="m75.092,51.404c-2.012,0-6.371-.068-10.587-.133-3.942-.062-7.666-.12-9.256-.12-1.759,0-5.43-.058-8.979-.115-3.127-.05-6.093-.097-7.345-.097-8.574,0-15.549-6.975-15.549-15.548,0-7.761,5.746-14.276,13.305-15.371,3.666-6.782,10.819-11.098,18.568-11.098.569,0,1.15.028,1.777.088,4.717-4.913,11.235-7.707,18.067-7.707,7.601,0,14.755,3.453,19.495,9.325,2.616-1.12,5.458-1.706,8.322-1.706,7.749,0,14.903,4.316,18.568,11.098,7.559,1.095,13.305,7.61,13.305,15.371,0,8.573-6.975,15.548-15.548,15.548-1.252,0-4.218.047-7.345.097-3.55.057-7.221.115-8.98.115-2.438,0-7.654.059-13.176.121-5.763.065-11.722.132-14.642.132ZM55.248,13.352c-6.458,0-12.396,3.799-15.124,9.679-.343.739-1.063,1.23-1.876,1.279-5.855.353-10.442,5.22-10.442,11.081,0,6.13,4.988,11.118,11.118,11.118,1.264,0,4.259.047,7.416.098,3.532.056,7.185.114,8.909.114,1.625,0,5.366.058,9.326.12,4.199.065,8.541.133,10.518.133,2.895,0,8.841-.067,14.592-.132,5.535-.062,10.763-.121,13.226-.121,1.724,0,5.377-.058,8.909-.114,3.157-.05,6.151-.098,7.416-.098,6.13,0,11.118-4.987,11.118-11.118,0-5.861-4.586-10.728-10.442-11.081-.813-.049-1.533-.54-1.876-1.279-2.729-5.879-8.666-9.679-15.124-9.679-2.776,0-5.523.695-7.947,2.01-.995.541-2.237.244-2.881-.69-3.857-5.597-10.208-8.939-16.99-8.939-5.948,0-11.609,2.576-15.532,7.067-.492.563-1.233.841-1.977.736-.896-.126-1.638-.185-2.335-.185Z" style="fill: #0097bb;"/>
  <g>
    <path d="m53.178,22.387c-1.568,0-2.685,1.156-2.685,2.764,0,.864.279,1.528.877,2.034.519.411,1.143.664,1.808.664.851,0,1.582-.332,2.246-1.063v3.084c-1.223.425-1.595.491-2.326.491-1.489,0-2.991-.651-4-1.741-.877-.917-1.329-2.113-1.329-3.455,0-2.95,2.339-5.303,5.303-5.303.784,0,1.409.146,2.353.519v3.109c-.611-.744-1.342-1.103-2.246-1.103Z" style="fill: #0097bb;"/>
    <path d="m59.115,30.095h-2.751l3.841-10.021h2.844l3.761,10.021h-2.778l-.638-1.741h-3.588l-.691,1.741Zm1.409-3.722h2.167l-1.077-3.202-1.09,3.202Z" style="fill: #0097bb;"/>
    <path d="m73.053,30.095l-2.472-3.841v3.841h-2.605v-10.021h4.041c1.129,0,1.874.278,2.458.89.545.572.864,1.383.864,2.207,0,.89-.345,1.728-.917,2.219-.345.306-.678.452-1.276.611l3.15,4.094h-3.243Zm-.891-5.795c.292-.199.505-.624.505-.983s-.213-.758-.505-.97c-.239-.173-.611-.266-1.103-.266h-.479v2.484h.479c.492,0,.864-.093,1.103-.266Z" style="fill: #0097bb;"/>
    <path d="m81.295,20.075c1.821,0,2.817.93,2.817,2.618,0,1.01-.319,1.607-1.103,2.06.731.146,1.077.292,1.409.625.399.425.638,1.116.638,1.874,0,1.768-1.316,2.844-3.456,2.844h-4.173v-10.021h3.868Zm.425,2.977c0-.651-.412-.97-1.209-.97h-.479v1.94h.479c.797,0,1.209-.346,1.209-.971Zm.705,3.961c0-.372-.187-.718-.492-.864s-.518-.187-1.382-.187h-.519v2.101h.572c1.289,0,1.821-.306,1.821-1.05Z" style="fill: #0097bb;"/>
    <path d="m95.779,21.456c.93.983,1.435,2.272,1.435,3.654,0,1.596-.678,3.07-1.874,4.081-1.01.837-2.232,1.262-3.708,1.262-3.163,0-5.502-2.312-5.502-5.436,0-1.502.691-2.977,1.874-3.974.957-.811,2.272-1.263,3.668-1.263,1.675,0,3.03.559,4.107,1.675Zm-6.924,3.628c0,1.582,1.249,2.845,2.817,2.845s2.831-1.263,2.831-2.818-1.263-2.804-2.831-2.804c-1.542,0-2.817,1.249-2.817,2.777Z" style="fill: #0097bb;"/>
    <path d="m101.491,20.075l4.785,6.126v-6.126h2.605v10.021h-2.605l-4.785-6.127v6.127h-2.605v-10.021h2.605Z" style="fill: #0097bb;"/>
    <path d="m56.144,35.387c-1.568,0-2.685,1.156-2.685,2.764,0,.864.279,1.528.877,2.034.519.411,1.143.664,1.808.664.851,0,1.582-.332,2.246-1.063v3.084c-1.223.425-1.595.491-2.326.491-1.489,0-2.991-.651-4-1.741-.877-.917-1.329-2.113-1.329-3.455,0-2.95,2.339-5.303,5.303-5.303.784,0,1.409.146,2.353.519v3.109c-.611-.744-1.342-1.103-2.246-1.103Z" style="fill: #0097bb;"/>
    <path d="m65.357,43.095l-2.472-3.841v3.841h-2.605v-10.021h4.041c1.129,0,1.874.278,2.458.89.545.572.864,1.383.864,2.207,0,.89-.345,1.728-.917,2.219-.345.306-.678.452-1.276.611l3.15,4.094h-3.243Zm-.891-5.795c.292-.199.505-.624.505-.983s-.213-.758-.505-.97c-.239-.173-.611-.266-1.103-.266h-.479v2.484h.479c.492,0,.864-.093,1.103-.266Z" style="fill: #0097bb;"/>
    <path d="m72.337,36.954h2.924v2.207h-2.924v1.728h3.083v2.206h-5.688v-10.021h5.688v2.206h-3.083v1.674Z" style="fill: #0097bb;"/>
    <path d="m81.132,33.075c2.645,0,4.931,2.312,4.931,5.01s-2.286,5.011-4.931,5.011h-3.841v-10.021h3.841Zm1.489,6.977c.465-.518.718-1.223.718-1.967s-.252-1.448-.718-1.953c-.519-.585-1.156-.851-2.126-.851h-.598v5.608h.598c.97,0,1.608-.253,2.126-.838Z" style="fill: #0097bb;"/>
    <path d="m87.702,43.095v-10.021h2.605v10.021h-2.605Z" style="fill: #0097bb;"/>
    <path d="m93.559,43.095v-7.814h-2.113v-2.206h6.871v2.206h-2.153v7.814h-2.604Z" style="fill: #0097bb;"/>
    <path d="m103.23,35.001c-.638,0-1.117.372-1.117.863,0,.187.093.386.239.506.292.239.399.278,1.568.624,1.741.519,2.458,1.329,2.458,2.817,0,1.13-.345,2.008-1.023,2.592-.718.611-1.741.944-2.897.944-1.183,0-2.406-.386-3.469-1.13l1.116-2.1c.811.704,1.528,1.022,2.299,1.022.758,0,1.263-.385,1.263-.97,0-.545-.346-.798-1.568-1.156-1.116-.332-1.542-.519-1.9-.811-.532-.438-.797-1.104-.797-1.994,0-2.007,1.382-3.375,3.402-3.375,1.05,0,2.166.292,3.176.811l-1.037,2.033c-.585-.465-1.117-.678-1.714-.678Z" style="fill: #0097bb;"/>
  </g>
  <g>
    <path d="m8.289,102.179c-.731.744-1.728,1.104-3.03,1.104-1.369,0-2.379-.398-3.123-1.21-.452-.465-.638-.837-.745-1.408h2.711c.16.465.545.69,1.143.69.97,0,1.555-.611,1.555-1.634v-.625c-.717.651-1.262.877-2.14.877-1.954,0-3.336-1.422-3.336-3.442,0-2.113,1.489-3.694,3.456-3.694.864,0,1.449.266,2.02.903v-.704h2.406v6.34c0,1.435-.213,2.1-.917,2.804Zm-4.452-5.781c0,.877.691,1.568,1.542,1.568s1.542-.691,1.542-1.555c0-.851-.691-1.542-1.542-1.542-.837,0-1.542.691-1.542,1.528Z" style="fill: #0097bb;"/>
    <path d="m14.377,98.418c.571,0,.891-.173,1.196-.651h2.312c-.173.571-.319.877-.598,1.196-.625.73-1.688,1.143-2.911,1.143-2.353,0-3.881-1.422-3.881-3.615,0-2.232,1.449-3.654,3.788-3.654,2.312,0,3.708,1.436,3.708,3.801v.239h-5.064c.013,1.037.492,1.542,1.449,1.542Zm-.04-4.027c-.731,0-1.236.398-1.355,1.09h2.765c-.16-.691-.691-1.09-1.409-1.09Z" style="fill: #0097bb;"/>
    <path d="m21.556,93.9c.65-.758,1.195-1.011,2.18-1.011.837,0,1.488.239,1.967.744.479.479.624.957.624,1.888v4.319h-2.405v-3.442c0-.691-.014-.824-.146-1.076-.146-.319-.531-.532-.957-.532-.398,0-.771.187-1.01.452-.173.239-.252.505-.252.943v3.655h-2.406v-6.805h2.406v.864Z" style="fill: #0097bb;"/>
    <path d="m31.378,98.418c.571,0,.89-.173,1.195-.651h2.312c-.173.571-.318.877-.598,1.196-.625.73-1.688,1.143-2.91,1.143-2.353,0-3.881-1.422-3.881-3.615,0-2.232,1.448-3.654,3.787-3.654,2.312,0,3.708,1.436,3.708,3.801v.239h-5.063c.014,1.037.492,1.542,1.449,1.542Zm-.04-4.027c-.731,0-1.236.398-1.355,1.09h2.764c-.159-.691-.69-1.09-1.408-1.09Z" style="fill: #0097bb;"/>
    <path d="m38.556,94.152c.559-.863,1.196-1.209,2.232-1.209.16,0,.239,0,.466.013v2.3c-.386-.187-.611-.239-1.011-.239-1.129,0-1.688.651-1.688,1.914v2.91h-2.405v-6.805h2.405v1.116Z" style="fill: #0097bb;"/>
    <path d="m49.894,99.84h-2.405v-.744c-.532.664-1.184.97-2.101.97-1.94,0-3.441-1.595-3.441-3.654,0-2.033,1.488-3.602,3.415-3.602.877,0,1.528.278,2.127.89v-.664h2.405v6.805Zm-5.436-3.429c0,.891.69,1.581,1.555,1.581.851,0,1.542-.69,1.542-1.568,0-.851-.691-1.541-1.556-1.541-.837,0-1.541.69-1.541,1.528Z" style="fill: #0097bb;"/>
    <path d="m52.5,99.428c-.306-.358-.571-.758-.571-1.887v-2.565h-.797v-1.94h.797v-2.047h2.393v2.047h1.595v1.94h-1.595v2.658c0,.386.199.571.611.571.306,0,.664-.106.891-.253v1.861c-.306.133-.824.252-1.528.252-1.077,0-1.556-.332-1.795-.638Z" style="fill: #0097bb;"/>
    <path d="m60.675,98.418c.571,0,.89-.173,1.195-.651h2.312c-.173.571-.318.877-.598,1.196-.625.73-1.688,1.143-2.91,1.143-2.353,0-3.881-1.422-3.881-3.615,0-2.232,1.448-3.654,3.787-3.654,2.312,0,3.708,1.436,3.708,3.801v.239h-5.063c.014,1.037.492,1.542,1.449,1.542Zm-.04-4.027c-.731,0-1.236.398-1.355,1.09h2.764c-.159-.691-.69-1.09-1.408-1.09Z" style="fill: #0097bb;"/>
    <path d="m73.129,99.84h-2.405v-.744c-.532.664-1.184.97-2.101.97-1.94,0-3.441-1.595-3.441-3.654,0-2.033,1.488-3.602,3.415-3.602.877,0,1.528.278,2.127.89v-4.864h2.405v11.005Zm-5.436-3.429c0,.891.69,1.581,1.555,1.581.851,0,1.542-.69,1.542-1.568,0-.851-.691-1.541-1.556-1.541-.837,0-1.541.69-1.541,1.528Z" style="fill: #0097bb;"/>
    <path d="m86.049,96.424c0,2.167-1.701,3.669-4.134,3.669-2.392,0-4.053-1.529-4.053-3.722,0-.997.451-1.967,1.223-2.645.678-.585,1.768-.944,2.857-.944,2.405,0,4.106,1.516,4.106,3.642Zm-5.648-.026c0,.877.691,1.582,1.555,1.582s1.556-.705,1.556-1.568-.691-1.556-1.568-1.556c-.838,0-1.542.705-1.542,1.542Z" style="fill: #0097bb;"/>
    <path d="m89.625,93.9c.651-.758,1.196-1.011,2.18-1.011.837,0,1.488.239,1.967.744.479.479.625.957.625,1.888v4.319h-2.405v-3.442c0-.691-.014-.824-.146-1.076-.146-.319-.532-.532-.957-.532-.398,0-.771.187-1.01.452-.173.239-.253.505-.253.943v3.655h-2.405v-6.805h2.405v.864Z" style="fill: #0097bb;"/>
    <path d="m107.077,99.84h-2.405v-.744c-.532.664-1.184.97-2.101.97-1.94,0-3.441-1.595-3.441-3.654,0-2.033,1.488-3.602,3.415-3.602.877,0,1.528.278,2.127.89v-.664h2.405v6.805Zm-5.436-3.429c0,.891.69,1.581,1.555,1.581.851,0,1.542-.69,1.542-1.568,0-.851-.691-1.541-1.556-1.541-.837,0-1.541.69-1.541,1.528Z" style="fill: #0097bb;"/>
    <path d="m113.79,93.036h2.685l-3.548,6.805h-1.608l-3.509-6.805h2.698l1.621,3.482,1.661-3.482Z" style="fill: #0097bb;"/>
    <path d="m120.41,98.418c.571,0,.89-.173,1.195-.651h2.312c-.173.571-.318.877-.598,1.196-.625.73-1.688,1.143-2.91,1.143-2.353,0-3.881-1.422-3.881-3.615,0-2.232,1.448-3.654,3.787-3.654,2.312,0,3.708,1.436,3.708,3.801v.239h-5.063c.014,1.037.492,1.542,1.449,1.542Zm-.04-4.027c-.731,0-1.236.398-1.355,1.09h2.764c-.159-.691-.69-1.09-1.408-1.09Z" style="fill: #0097bb;"/>
    <path d="m127.588,94.152c.559-.863,1.196-1.209,2.232-1.209.16,0,.239,0,.466.013v2.3c-.386-.187-.611-.239-1.011-.239-1.129,0-1.688.651-1.688,1.914v2.91h-2.405v-6.805h2.405v1.116Z" style="fill: #0097bb;"/>
    <path d="m138.927,99.84h-2.405v-.744c-.532.664-1.184.97-2.101.97-1.94,0-3.441-1.595-3.441-3.654,0-2.033,1.488-3.602,3.415-3.602.877,0,1.528.278,2.127.89v-.664h2.405v6.805Zm-5.436-3.429c0,.891.69,1.581,1.555,1.581.851,0,1.542-.69,1.542-1.568,0-.851-.691-1.541-1.556-1.541-.837,0-1.541.69-1.541,1.528Z" style="fill: #0097bb;"/>
    <path d="m147.155,102.179c-.731.744-1.728,1.104-3.03,1.104-1.369,0-2.379-.398-3.123-1.21-.452-.465-.638-.837-.744-1.408h2.711c.159.465.545.69,1.143.69.971,0,1.556-.611,1.556-1.634v-.625c-.718.651-1.263.877-2.14.877-1.954,0-3.336-1.422-3.336-3.442,0-2.113,1.488-3.694,3.455-3.694.864,0,1.448.266,2.021.903v-.704h2.405v6.34c0,1.435-.213,2.1-.917,2.804Zm-4.452-5.781c0,.877.69,1.568,1.541,1.568s1.542-.691,1.542-1.555c0-.851-.691-1.542-1.542-1.542-.837,0-1.541.691-1.541,1.528Z" style="fill: #0097bb;"/>
    <path d="m153.244,98.418c.571,0,.89-.173,1.195-.651h2.312c-.173.571-.318.877-.598,1.196-.625.73-1.688,1.143-2.91,1.143-2.353,0-3.881-1.422-3.881-3.615,0-2.232,1.448-3.654,3.787-3.654,2.312,0,3.708,1.436,3.708,3.801v.239h-5.063c.014,1.037.492,1.542,1.449,1.542Zm-.04-4.027c-.731,0-1.236.398-1.355,1.09h2.764c-.159-.691-.69-1.09-1.408-1.09Z" style="fill: #0097bb;"/>
    <path d="m49.257,114.37c.571,0,.89-.173,1.195-.651h2.312c-.173.571-.318.877-.598,1.196-.625.73-1.688,1.143-2.91,1.143-2.353,0-3.881-1.422-3.881-3.615,0-2.232,1.448-3.654,3.787-3.654,2.312,0,3.708,1.436,3.708,3.801v.239h-5.063c.014,1.037.492,1.542,1.449,1.542Zm-.04-4.027c-.731,0-1.236.398-1.355,1.09h2.764c-.159-.691-.69-1.09-1.408-1.09Z" style="fill: #0097bb;"/>
    <path d="m61.737,115.792h-2.405v-.744c-.532.664-1.184.97-2.101.97-1.94,0-3.441-1.595-3.441-3.654,0-2.033,1.488-3.602,3.415-3.602.877,0,1.528.278,2.127.89v-.664h2.405v6.805Zm-5.436-3.429c0,.891.69,1.581,1.555,1.581.851,0,1.542-.69,1.542-1.568,0-.851-.691-1.541-1.556-1.541-.837,0-1.541.69-1.541,1.528Z" style="fill: #0097bb;"/>
    <path d="m67.068,110.755c-.957,0-1.647.691-1.647,1.661,0,.943.704,1.635,1.647,1.635.466,0,.838-.133,1.25-.452v2.047c-.611.266-1.09.372-1.688.372-2.086,0-3.721-1.568-3.721-3.575,0-2.1,1.621-3.668,3.787-3.668.625,0,1.077.106,1.622.386v2.033c-.466-.318-.812-.438-1.25-.438Z" style="fill: #0097bb;"/>
    <path d="m72.119,109.852c.651-.758,1.196-1.011,2.18-1.011.837,0,1.488.239,1.967.744.479.479.625.957.625,1.888v4.319h-2.405v-3.442c0-.691-.014-.824-.146-1.076-.146-.319-.532-.532-.957-.532-.398,0-.771.187-1.01.452-.173.239-.253.505-.253.943v3.655h-2.405v-11.005h2.405v5.064Z" style="fill: #0097bb;"/>
    <path d="m83.856,108.988l1.82,3.482,1.769-3.482h2.751l-5.463,10.221h-2.698l2.313-4.333-3.283-5.888h2.791Z" style="fill: #0097bb;"/>
    <path d="m94.079,114.37c.571,0,.89-.173,1.195-.651h2.312c-.173.571-.318.877-.598,1.196-.625.73-1.688,1.143-2.91,1.143-2.353,0-3.881-1.422-3.881-3.615,0-2.232,1.448-3.654,3.787-3.654,2.312,0,3.708,1.436,3.708,3.801v.239h-5.063c.014,1.037.492,1.542,1.449,1.542Zm-.04-4.027c-.731,0-1.236.398-1.355,1.09h2.764c-.159-.691-.69-1.09-1.408-1.09Z" style="fill: #0097bb;"/>
    <path d="m106.56,115.792h-2.405v-.744c-.532.664-1.184.97-2.101.97-1.94,0-3.441-1.595-3.441-3.654,0-2.033,1.488-3.602,3.415-3.602.877,0,1.528.278,2.127.89v-.664h2.405v6.805Zm-5.436-3.429c0,.891.69,1.581,1.555,1.581.851,0,1.542-.69,1.542-1.568,0-.851-.691-1.541-1.556-1.541-.837,0-1.541.69-1.541,1.528Z" style="fill: #0097bb;"/>
    <path d="m110.402,110.104c.559-.863,1.196-1.209,2.232-1.209.16,0,.239,0,.466.013v2.3c-.386-.187-.611-.239-1.011-.239-1.129,0-1.688.651-1.688,1.914v2.91h-2.405v-6.805h2.405v1.116Z" style="fill: #0097bb;"/>
  </g>
</svg>